<svg width="513" height="512" viewBox="0 0 513 512" fill="none" xmlns="http://www.w3.org/2000/svg">
<path d="M324.19 122.634C320.815 120.159 316.612 119.09 312.465 119.649C308.318 120.208 304.549 122.354 301.95 125.634L324.44 93.7639C327.039 90.0706 328.082 85.5041 327.344 81.0488C326.607 76.5935 324.149 72.6064 320.499 69.9471C316.849 67.2878 312.3 66.1693 307.833 66.8328C303.366 67.4963 299.339 69.8886 296.62 73.4939L286.25 87.2539C288.345 83.1582 288.836 78.4284 287.628 73.9895C286.42 69.5506 283.6 65.7218 279.719 63.252C275.838 60.7821 271.175 59.8487 266.643 60.6343C262.11 61.4199 258.033 63.868 255.21 67.4999L129.22 219.964L129.2 219.944C130.89 205.354 125.13 163.904 116.12 144.684C109.56 130.694 87.45 114.674 77.57 129.744C74.65 134.204 76.53 141.074 78.99 151.684L82.78 175.834C84.3725 185.964 83.9477 196.309 81.53 206.274L76.69 226.254C73.38 240.524 85.47 314.564 89.72 339.544C90.1599 342.143 90.0499 344.806 89.3971 347.361C88.7443 349.915 87.5632 352.304 85.93 354.374L61.36 400.044L201 373.574L328.24 144.534C330.486 141.056 331.318 136.851 330.565 132.779C329.812 128.708 327.532 125.079 324.19 122.634V122.634Z" fill="#606060"/>
<path d="M282.9 65.824C281.052 63.958 278.827 62.508 276.374 61.571C273.921 60.634 271.296 60.2315 268.674 60.3906C266.053 60.5496 263.496 61.2664 261.174 62.4932C258.852 63.7199 256.819 65.4283 255.21 67.504L129.34 220.477C131.247 233.563 132.016 245.707 131.25 252.324L275.21 77.5C277.965 73.9447 281.929 71.5248 286.35 70.7C285.472 68.8985 284.307 67.2517 282.9 65.824V65.824Z" fill="#373737"/>
<path d="M109.72 349.544C105.47 324.564 93.38 250.524 96.69 236.254L101.53 216.274C103.948 206.309 104.372 195.964 102.78 185.834L98.99 161.684C96.53 151.074 94.65 144.204 97.57 139.744C98.6545 137.92 100.188 136.405 102.025 135.343C103.861 134.281 105.94 133.707 108.061 133.677C98.618 124.36 84.812 118.698 77.57 129.744C74.65 134.204 76.53 141.074 78.99 151.684L82.78 175.834C84.3725 185.964 83.9477 196.309 81.53 206.274L76.69 226.254C73.38 240.524 85.47 314.564 89.72 339.544C90.1599 342.143 90.0499 344.806 89.3971 347.361C88.7443 349.915 87.5632 352.304 85.93 354.374L61.36 400.044L89.622 394.687L105.93 364.374C107.563 362.304 108.744 359.915 109.397 357.361C110.05 354.806 110.16 352.143 109.72 349.544V349.544Z" fill="#373737"/>
<path d="M411.08 181.424C409.812 179.542 408.183 177.93 406.288 176.681C404.393 175.432 402.27 174.571 400.04 174.147C397.811 173.723 395.519 173.745 393.298 174.211C391.077 174.677 388.971 175.579 387.1 176.864L372.88 186.624C376.168 183.407 378.139 179.081 378.408 174.489C378.677 169.897 377.224 165.37 374.333 161.792C371.442 158.214 367.322 155.842 362.776 155.14C358.23 154.437 353.586 155.455 349.75 157.994L227.32 239.394C219.43 244.634 209.1 249.654 198.82 253.974C191.89 256.874 186.67 259.274 182.04 262.304C188.26 248.884 195.8 207.904 193.37 186.874C192.018 177.775 187.768 169.355 181.25 162.864C175.44 157.384 168.31 155.114 161.57 160.424C157.38 163.724 156.98 170.834 155.94 181.684L153.46 196.394H153.45L151.87 205.774C150.16 215.89 146.47 225.568 141.01 234.254L130.08 251.644C122.41 264.124 110.35 338.204 106.44 363.214C106.035 365.817 105.086 368.305 103.656 370.517C102.226 372.729 100.347 374.616 98.14 376.054L61.36 400.044L59.24 401.424L134.5 497.704L200.87 442.744C202.79 441.144 204.6 439.424 206.38 437.674C210.928 433.2 216.399 429.773 222.41 427.634C238.05 422.064 266.42 403.624 301.92 368.404L371.76 305.844C376.109 302.076 379.06 296.952 380.137 291.299C381.213 285.646 380.351 279.796 377.69 274.694L375.12 269.774L394.52 254.284C397.148 252.186 399.059 249.323 399.99 246.092C400.92 242.86 400.823 239.419 399.713 236.245C398.603 233.071 396.535 230.32 393.793 228.372C391.052 226.425 387.773 225.377 384.41 225.374C381.751 225.37 379.133 226.027 376.79 227.284L407.04 204.944C410.616 202.301 413.033 198.378 413.785 193.996C414.538 189.613 413.569 185.109 411.08 181.424V181.424Z" fill="#606060"/>
<path d="M181.25 162.864C175.44 157.384 168.31 155.114 161.57 160.424C157.38 163.724 156.98 170.834 155.94 181.684L153.46 196.394H153.45L151.87 205.774C150.16 215.89 146.47 225.568 141.01 234.254L130.08 251.644C122.41 264.124 110.35 338.204 106.44 363.214C106.035 365.817 105.086 368.305 103.656 370.517C102.226 372.729 100.347 374.616 98.14 376.054L61.36 400.044L59.24 401.424L72.579 418.489L81.36 410.044L118.14 386.054C120.347 384.616 122.226 382.729 123.656 380.517C125.086 378.305 126.035 375.817 126.44 373.214C130.35 348.204 142.41 274.124 150.08 261.644L161.01 244.254C166.47 235.568 170.16 225.89 171.87 215.774L173.45 206.394H173.46L175.94 191.684C176.98 180.834 177.38 173.724 181.57 170.424C182.824 169.419 184.238 168.63 185.752 168.091C184.424 166.207 182.916 164.456 181.25 162.864V162.864Z" fill="#373737"/>
<path d="M369.983 157.853C366.964 155.902 363.44 154.876 359.845 154.901C356.251 154.926 352.742 156.001 349.75 157.994L227.32 239.394C222.495 242.594 195.803 254.953 185.609 259.694C184.777 260.082 184.045 260.656 183.47 261.371C182.894 262.086 182.491 262.924 182.29 263.82C181.778 266.091 181.249 268.269 180.71 270.32C180.422 271.423 180.455 272.586 180.804 273.672C181.153 274.758 181.805 275.721 182.682 276.45C183.559 277.179 184.626 277.643 185.758 277.787C186.889 277.931 188.038 277.749 189.07 277.264C200.009 272.164 214.37 265.831 218.82 263.964C229.1 259.644 239.43 254.624 247.32 249.384L369.75 167.984L369.814 167.941L369.983 157.853Z" fill="#373737"/>
<path d="M356.888 81.4879C357.592 81.8411 358.359 82.0521 359.145 82.1089C359.931 82.1657 360.721 82.0671 361.468 81.8188C362.216 81.5705 362.908 81.1773 363.504 80.6617C364.099 80.1462 364.588 79.5183 364.941 78.8139L395.941 16.9849C396.654 15.5623 396.773 13.9146 396.272 12.4043C395.77 10.8939 394.689 9.64472 393.267 8.93142C391.844 8.21812 390.196 8.09917 388.686 8.60073C387.176 9.1023 385.926 10.1833 385.213 11.6059L354.213 73.4349C353.86 74.1393 353.649 74.9064 353.592 75.6923C353.536 76.4783 353.634 77.2677 353.883 78.0155C354.131 78.7633 354.524 79.4548 355.04 80.0506C355.556 80.6464 356.184 81.1348 356.888 81.4879V81.4879Z" fill="black"/>
<path d="M370.573 98.3619C370.979 99.0374 371.514 99.6263 372.147 100.095C372.781 100.564 373.5 100.903 374.265 101.094C375.029 101.285 375.824 101.323 376.603 101.206C377.383 101.09 378.132 100.821 378.807 100.415L444.518 60.9309C445.865 60.1031 446.831 58.7772 447.206 57.2412C447.581 55.7052 447.334 54.0834 446.519 52.7282C445.705 51.3731 444.389 50.3941 442.856 50.0042C441.324 49.6143 439.7 49.8449 438.337 50.6459L372.626 90.1299C371.262 90.9494 370.28 92.277 369.895 93.8208C369.51 95.3645 369.754 96.9979 370.573 98.3619V98.3619Z" fill="black"/>
<path d="M453.263 110.494H453.199L385.899 111.194C384.308 111.202 382.785 111.842 381.665 112.973C380.546 114.103 379.921 115.633 379.929 117.224C379.937 118.815 380.577 120.338 381.708 121.458C382.838 122.577 384.368 123.202 385.959 123.194H386.023L453.318 122.494C454.909 122.486 456.432 121.846 457.552 120.715C458.671 119.585 459.296 118.055 459.288 116.464C459.28 114.873 458.64 113.35 457.509 112.23C456.379 111.111 454.849 110.486 453.258 110.494H453.263Z" fill="black"/>
<path d="M401.155 168.254C395.347 167.135 389.331 168.295 384.355 171.494C384.029 167.241 382.597 163.146 380.199 159.618C377.802 156.089 374.524 153.249 370.69 151.379C366.856 149.509 362.599 148.674 358.343 148.957C354.087 149.241 349.978 150.632 346.426 152.994L317.979 171.909L333.279 147.786C335.303 144.651 336.506 141.056 336.776 137.334C337.046 133.612 336.375 129.881 334.825 126.486C333.274 123.092 330.894 120.142 327.904 117.909C324.914 115.675 321.409 114.231 317.714 113.708L329.358 97.208C332.851 92.2833 334.287 86.1908 333.36 80.2245C332.433 74.2583 329.217 68.8884 324.395 65.2554C319.572 61.6224 313.524 60.0125 307.533 60.7677C301.543 61.5229 296.083 64.5837 292.313 69.3C290.653 65.3689 287.994 61.9406 284.598 59.3558C281.203 56.7711 277.191 55.1198 272.96 54.5663C268.728 54.0127 264.426 54.576 260.48 56.2003C256.534 57.8246 253.082 60.4532 250.467 63.825L180.133 154.51C179.153 153.919 178.132 153.4 177.077 152.957C173.933 151.588 170.47 151.12 167.076 151.607C163.681 152.093 160.489 153.515 157.856 155.712C151.92 160.384 151.182 168.22 150.161 179.065L149.987 180.897L147.887 193.319C144.417 196.675 139.378 201.37 136.125 204.298C135.792 204.596 135.464 204.892 135.142 205.187C133.852 185.844 128.85 157.699 121.555 142.14C116.384 131.112 102.817 118.64 89.915 117.724C86.4962 117.424 83.0614 118.082 79.9954 119.624C76.9294 121.166 74.3534 123.531 72.556 126.455C68.746 132.266 69.956 139.217 72.1 148.548C72.491 150.248 72.829 151.965 73.109 153.687L76.85 176.759C78.3278 186.112 77.9362 195.665 75.698 204.866L70.85 224.9C67.486 239.4 77.52 303.583 83.8 340.55C84.1003 342.32 84.0258 344.134 83.5814 345.874C83.137 347.613 82.3325 349.241 81.22 350.65L56.801 395.85L55.961 396.398C55.2649 396.852 54.6706 397.446 54.216 398.142C53.7614 398.837 53.4563 399.62 53.32 400.44C53.1838 401.26 53.2194 402.099 53.4246 402.905C53.6298 403.71 54.0001 404.464 54.512 405.119L129.772 501.399C130.266 502.031 130.882 502.557 131.583 502.947C132.284 503.337 133.057 503.582 133.854 503.669C134.069 503.692 134.284 503.704 134.5 503.704C135.897 503.703 137.251 503.216 138.327 502.325L204.693 447.363C206.865 445.563 208.893 443.619 210.587 441.953C214.509 438.084 219.234 435.125 224.426 433.284C244.547 426.122 275.096 403.462 306.143 372.668L375.683 310.38C381.073 305.741 384.732 299.413 386.063 292.427C387.393 285.442 386.317 278.211 383.01 271.916L382.725 271.37L398.259 258.97C401.17 256.644 403.45 253.624 404.89 250.187C406.329 246.751 406.882 243.007 406.497 239.301C406.112 235.595 404.802 232.045 402.687 228.977C400.573 225.909 397.721 223.422 394.394 221.744L410.604 209.771C414.239 207.087 417.012 203.402 418.585 199.166C420.158 194.93 420.461 190.328 419.459 185.922C418.456 181.517 416.19 177.499 412.94 174.361C409.689 171.223 405.593 169.101 401.155 168.255V168.254ZM259.95 71.18C261.834 68.7635 264.54 67.1244 267.554 66.5749C270.569 66.0254 273.68 66.604 276.295 68.2004C278.91 69.7969 280.846 72.2995 281.735 75.2316C282.624 78.1637 282.403 81.3203 281.114 84.1L203.673 194.86C203.216 195.505 202.891 196.234 202.717 197.004C202.542 197.775 202.522 198.573 202.657 199.352C202.792 200.13 203.079 200.875 203.502 201.542C203.925 202.209 204.476 202.787 205.123 203.24C205.77 203.694 206.501 204.016 207.272 204.187C208.044 204.357 208.842 204.374 209.62 204.236C210.398 204.097 211.141 203.807 211.806 203.38C212.472 202.954 213.046 202.4 213.497 201.751L301.41 77.105C303.185 74.7674 305.806 73.2189 308.71 72.7919C311.614 72.365 314.57 73.0936 316.943 74.8213C319.316 76.5491 320.917 79.1382 321.402 82.0331C321.888 84.928 321.219 87.8977 319.539 90.305L233.23 212.6C232.754 213.242 232.412 213.973 232.222 214.75C232.033 215.527 232.001 216.333 232.128 217.122C232.255 217.912 232.538 218.668 232.961 219.346C233.384 220.024 233.938 220.611 234.591 221.072C235.244 221.533 235.982 221.859 236.763 222.031C237.544 222.202 238.351 222.216 239.137 222.072C239.923 221.927 240.673 221.627 241.341 221.189C242.01 220.751 242.584 220.183 243.03 219.52L306.578 129.478C308.196 127.372 310.575 125.983 313.204 125.609C315.834 125.235 318.505 125.906 320.646 127.478C322.754 129.028 324.189 131.326 324.657 133.9C325.126 136.475 324.592 139.131 323.165 141.324L293.4 188.254L223.998 234.4C217.223 238.9 207.971 243.63 196.498 248.442C195.035 249.056 193.653 249.649 192.311 250.242C197.18 231.522 201.311 203.321 199.327 186.19C198.456 178.658 194.679 169.565 189.073 162.569L259.95 71.18ZM90.977 357.65C93.0117 354.949 94.4739 351.861 95.2742 348.575C96.0744 345.29 96.1958 341.875 95.631 338.541C85.66 279.852 80.521 236.31 82.524 227.67L87.364 207.69C89.9753 196.956 90.4322 185.811 88.708 174.9L84.792 150.925C84.5107 149.211 84.175 147.507 83.785 145.814C82.445 139.972 81.433 134.804 82.592 133.036C83.2179 131.9 84.1674 130.976 85.3199 130.381C86.4723 129.787 87.7756 129.548 89.064 129.696C96.19 130.202 106.7 138.726 110.69 147.236C118.87 164.682 124.39 203.151 123.375 217.782C119.555 223.133 116.481 228.979 114.238 235.159C113.641 236.657 113.655 238.328 114.277 239.816C114.9 241.303 116.08 242.487 117.566 243.113C118.303 243.403 119.09 243.544 119.882 243.528C120.674 243.512 121.455 243.339 122.179 243.019C122.904 242.699 123.558 242.239 124.104 241.665C124.649 241.091 125.076 240.414 125.358 239.674C130.179 227.092 134.574 221.817 143.912 213.432C142.061 219.642 139.375 225.572 135.928 231.06L124.967 248.507C117.167 261.186 106.299 325.24 100.512 362.294C100.234 364.064 99.5875 365.756 98.6144 367.261C97.6413 368.766 96.3633 370.049 94.863 371.029L77.789 382.162L90.977 357.65ZM403.477 200.118L273.15 296.376C272.507 296.84 271.962 297.428 271.548 298.104C271.133 298.781 270.857 299.532 270.735 300.316C270.613 301.1 270.647 301.9 270.836 302.671C271.026 303.441 271.366 304.166 271.837 304.805C272.308 305.443 272.901 305.981 273.582 306.388C274.263 306.796 275.018 307.064 275.803 307.178C276.588 307.292 277.388 307.249 278.156 307.051C278.924 306.854 279.646 306.506 280.279 306.028L379.926 232.428C382.1 231.355 384.586 231.095 386.935 231.693C389.285 232.291 391.343 233.708 392.74 235.69C394.245 237.821 394.879 240.447 394.514 243.03C394.148 245.614 392.81 247.96 390.772 249.59L284.05 334.79C282.806 335.783 282.008 337.229 281.83 338.81C281.653 340.392 282.111 341.979 283.104 343.222C284.096 344.466 285.542 345.265 287.124 345.442C288.705 345.62 290.292 345.162 291.536 344.169L373.11 279.048C374.689 282.841 375.029 287.036 374.081 291.034C373.133 295.032 370.945 298.627 367.831 301.307L297.695 364.148C262.54 399.015 234.718 416.883 220.403 421.979C213.565 424.402 207.343 428.299 202.178 433.393C200.587 434.957 198.863 436.612 197.042 438.12L135.428 489.146L67.991 402.879L101.417 381.079C104.326 379.18 106.804 376.691 108.69 373.774C110.577 370.857 111.83 367.576 112.369 364.144C121.556 305.32 130.513 262.397 135.159 254.844L146.089 237.444C151.976 228.095 155.951 217.672 157.782 206.777L161.856 182.682C161.88 182.541 161.899 182.398 161.913 182.255L162.108 180.191C162.765 173.218 163.385 166.632 165.278 165.142C166.231 164.266 167.424 163.692 168.704 163.495C169.984 163.299 171.293 163.487 172.466 164.036C179.066 166.783 186.326 178.215 187.407 187.561C189.625 206.741 182.782 244.712 177.22 258.347C171.757 262.276 166.868 266.949 162.696 272.229C162.195 272.837 161.818 273.538 161.588 274.291C161.358 275.045 161.278 275.836 161.353 276.621C161.429 277.405 161.658 278.167 162.028 278.863C162.398 279.558 162.902 280.174 163.51 280.675C164.118 281.177 164.818 281.553 165.572 281.784C166.325 282.014 167.117 282.094 167.901 282.018C168.686 281.942 169.447 281.713 170.143 281.343C170.839 280.973 171.455 280.47 171.956 279.862C181.298 268.528 187.379 265.277 201.141 259.505C213.311 254.398 223.241 249.313 230.641 244.388L353.068 162.988C354.538 161.997 356.205 161.336 357.954 161.05C359.704 160.764 361.494 160.861 363.203 161.333C365.288 161.898 367.192 162.994 368.728 164.513C370.264 166.033 371.38 167.924 371.968 170.003C372.556 172.082 372.595 174.278 372.081 176.377C371.568 178.476 370.52 180.406 369.039 181.979L251.211 268.8C250.555 269.258 249.998 269.842 249.571 270.519C249.144 271.196 248.857 271.951 248.727 272.74C248.596 273.529 248.625 274.337 248.811 275.115C248.997 275.893 249.336 276.625 249.81 277.27C250.283 277.915 250.881 278.459 251.567 278.869C252.254 279.28 253.016 279.549 253.808 279.66C254.6 279.772 255.406 279.724 256.18 279.52C256.953 279.316 257.678 278.959 258.311 278.47L390.491 181.807C392.921 180.141 395.908 179.497 398.809 180.014C401.709 180.532 404.29 182.169 405.994 184.572C407.697 186.976 408.388 189.953 407.916 192.861C407.444 195.769 405.848 198.375 403.471 200.116L403.477 200.118Z" fill="black"/>
</svg>
