<svg width="577" height="649" viewBox="0 0 577 649" fill="none" xmlns="http://www.w3.org/2000/svg">
<g clip-path="url(#clip0)">
<path d="M576.816 264.494C579.379 195.077 554.447 124.822 499.488 91.3879C472.361 74.8801 440.642 65.21 408.907 66.6345C374.859 68.1596 342.805 82.0195 310.701 93.4493C278.597 104.879 243.829 114.013 210.737 105.901C186.793 100.036 165.731 85.5389 142.038 78.9358C48.6921 52.9423 -32.5899 158.877 13.0862 243.092C24.2958 263.739 41.5709 280.298 56.0981 298.783C70.6254 317.268 82.8068 339.592 80.8464 363.004C79.1708 382.395 68.179 399.657 63.6047 418.561C54.8582 454.778 72.2171 494.614 102.227 516.686C132.236 538.758 172.718 543.903 208.91 534.819C245.103 525.736 276.939 503.513 302.022 475.995C315.426 461.247 328.563 444.018 347.849 439.007C366.364 434.214 385.449 442.024 404.232 445.61C421.597 448.823 439.435 448.459 456.655 444.54C473.875 440.621 490.115 433.229 504.381 422.818C549.705 389.283 574.503 327.223 576.816 264.494Z" fill="#BDFF00"/>
<path opacity="0.7" d="M576.816 264.494C579.379 195.077 554.447 124.822 499.488 91.3879C472.361 74.8801 440.642 65.21 408.907 66.6345C374.859 68.1596 342.805 82.0195 310.701 93.4493C278.597 104.879 243.829 114.013 210.737 105.901C186.793 100.036 165.731 85.5389 142.038 78.9358C48.6921 52.9423 -32.5899 158.877 13.0862 243.092C24.2958 263.739 41.5709 280.298 56.0981 298.783C70.6254 317.268 82.8068 339.592 80.8464 363.004C79.1708 382.395 68.179 399.657 63.6047 418.561C54.8582 454.778 72.2171 494.614 102.227 516.686C132.236 538.758 172.718 543.903 208.91 534.819C245.103 525.736 276.939 503.513 302.022 475.995C315.426 461.247 328.563 444.018 347.849 439.007C366.364 434.214 385.449 442.024 404.232 445.61C421.597 448.823 439.435 448.459 456.655 444.54C473.875 440.621 490.115 433.229 504.381 422.818C549.705 389.283 574.503 327.223 576.816 264.494Z" fill="white"/>
<path d="M278.262 649C403.385 649 504.816 628.711 504.816 603.683C504.816 578.655 403.385 558.366 278.262 558.366C153.14 558.366 51.7081 578.655 51.7081 603.683C51.7081 628.711 153.14 649 278.262 649Z" fill="#BDFF00"/>
<path opacity="0.5" d="M278.262 649C403.385 649 504.816 628.711 504.816 603.683C504.816 578.655 403.385 558.366 278.262 558.366C153.14 558.366 51.7081 578.655 51.7081 603.683C51.7081 628.711 153.14 649 278.262 649Z" fill="white"/>
<path d="M518.774 0.837891H355.422C349.842 0.837891 345.319 5.36241 345.319 10.9437V191.055C345.319 196.636 349.842 201.161 355.422 201.161H518.774C524.354 201.161 528.878 196.636 528.878 191.055V10.9437C528.878 5.36241 524.354 0.837891 518.774 0.837891Z" fill="white" stroke="black" stroke-linecap="round" stroke-linejoin="round"/>
<path d="M355.422 0.837956H518.757C521.424 0.837956 523.981 1.89737 525.866 3.78315C527.751 5.66893 528.811 8.22659 528.811 10.8935V21.3847H345.319V10.9438C345.312 9.61478 345.569 8.29767 346.074 7.06857C346.58 5.83947 347.324 4.72276 348.263 3.78302C349.203 2.84328 350.319 2.09915 351.548 1.59365C352.777 1.08814 354.094 0.831294 355.422 0.837956Z" fill="black" stroke="black" stroke-linecap="round" stroke-linejoin="round"/>
<path d="M355.322 107.795H429.181" stroke="black" stroke-linecap="round" stroke-linejoin="round"/>
<path d="M355.322 117.331H429.181" stroke="black" stroke-linecap="round" stroke-linejoin="round"/>
<path d="M355.322 126.867H429.181" stroke="black" stroke-linecap="round" stroke-linejoin="round"/>
<path d="M355.322 136.403H429.181" stroke="black" stroke-linecap="round" stroke-linejoin="round"/>
<path d="M355.322 145.956H429.181" stroke="black" stroke-linecap="round" stroke-linejoin="round"/>
<path d="M355.322 155.492H429.181" stroke="black" stroke-linecap="round" stroke-linejoin="round"/>
<path d="M355.322 165.028H429.181" stroke="black" stroke-linecap="round" stroke-linejoin="round"/>
<path d="M355.322 174.564H429.181" stroke="black" stroke-linecap="round" stroke-linejoin="round"/>
<path d="M355.322 184.117H429.181" stroke="black" stroke-linecap="round" stroke-linejoin="round"/>
<path d="M442.167 107.795H516.026" stroke="black" stroke-linecap="round" stroke-linejoin="round"/>
<path d="M442.167 117.331H516.026" stroke="black" stroke-linecap="round" stroke-linejoin="round"/>
<path d="M442.167 126.867H516.026" stroke="black" stroke-linecap="round" stroke-linejoin="round"/>
<path d="M442.167 136.403H516.026" stroke="black" stroke-linecap="round" stroke-linejoin="round"/>
<path d="M442.167 145.956H516.026" stroke="black" stroke-linecap="round" stroke-linejoin="round"/>
<path d="M442.167 155.492H516.026" stroke="black" stroke-linecap="round" stroke-linejoin="round"/>
<path d="M442.167 165.028H516.026" stroke="black" stroke-linecap="round" stroke-linejoin="round"/>
<path d="M442.167 174.564H516.026" stroke="black" stroke-linecap="round" stroke-linejoin="round"/>
<path d="M442.167 184.117H516.026" stroke="black" stroke-linecap="round" stroke-linejoin="round"/>
<path d="M404.718 47.4118C405.082 46.2794 405.274 45.0986 405.287 43.9091C405.287 39.5685 400.881 39.3171 396.558 39.3171H395.468V38.2948H414.335V39.3171C409.426 39.3171 407.633 42.4511 406.108 47.0934L396.055 77.1091C395.301 79.3381 394.664 80.9972 392.302 80.9972H392.101L383.254 52.3222L375.027 77.1761C374.256 79.4051 373.619 81.0643 371.256 81.0643H371.072L358.204 39.3171H353.68V38.2948H370.234V39.3171H365.526L375.077 72.1987H375.462L382.667 50.3614L379.316 39.4009H374.792V38.2948H391.363V39.3171H386.655L396.206 72.1987H396.574L404.718 47.4118Z" fill="#BDFF00"/>
<path d="M516.562 28.7923H440.558V97.505H516.562V28.7923Z" fill="#BDFF00" stroke="black" stroke-width="2" stroke-linecap="round" stroke-linejoin="round"/>
<path d="M516.545 57.5176C513.996 57.6628 511.463 58.0159 508.972 58.5734C497.427 61.0873 494.411 77.6621 481.358 77.6621C469.797 77.6621 468.808 62.0928 452.237 60.0817C448.205 59.4466 444.076 60.1781 440.508 62.1599V97.505H516.545V57.5176Z" fill="black" stroke="black" stroke-linecap="round" stroke-linejoin="round"/>
<path d="M465.792 44.5125C465.796 46.2043 465.297 47.8592 464.359 49.2673C463.421 50.6755 462.087 51.7736 460.525 52.4226C458.963 53.0715 457.243 53.2422 455.584 52.913C453.925 52.5837 452.4 51.7693 451.204 50.573C450.008 49.3766 449.194 47.8521 448.865 46.1926C448.536 44.533 448.706 42.8131 449.355 41.2506C450.004 39.6881 451.102 38.3534 452.51 37.4155C453.918 36.4776 455.572 35.9787 457.264 35.982C459.526 35.982 461.695 36.8808 463.294 38.4805C464.894 40.0803 465.792 42.25 465.792 44.5125Z" fill="white" stroke="black" stroke-linecap="round" stroke-linejoin="round"/>
<path d="M520.014 6.87128H350.831V13.3906H520.014V6.87128Z" fill="white" stroke="black" stroke-linecap="round" stroke-linejoin="round"/>
<path d="M509.458 241.131H436.218C433.339 241.131 430.577 242.276 428.541 244.312C426.505 246.349 425.361 249.111 425.361 251.991V291.174C425.361 294.055 426.505 296.817 428.541 298.853C430.577 300.89 433.339 302.034 436.218 302.034H438.464C436.185 307.062 431.761 314.771 424.774 319.346C424.774 319.346 439.637 318.307 455.119 302.034H509.424C512.304 302.034 515.065 300.89 517.102 298.853C519.138 296.817 520.282 294.055 520.282 291.174V251.991C520.282 249.117 519.143 246.36 517.114 244.324C515.085 242.288 512.331 241.14 509.458 241.131Z" fill="black" stroke="black" stroke-linecap="round" stroke-linejoin="round"/>
<path d="M460.246 270.192C460.249 269.083 459.924 267.999 459.31 267.076C458.696 266.152 457.822 265.432 456.799 265.007C455.776 264.581 454.649 264.469 453.562 264.684C452.475 264.9 451.476 265.433 450.693 266.217C449.909 267.001 449.375 268 449.16 269.087C448.945 270.174 449.057 271.301 449.483 272.325C449.908 273.348 450.628 274.222 451.551 274.836C452.474 275.45 453.558 275.776 454.667 275.773C456.145 275.768 457.562 275.179 458.607 274.133C459.652 273.087 460.242 271.67 460.246 270.192Z" fill="#BDFF00" stroke="black" stroke-linecap="round" stroke-linejoin="round"/>
<path d="M479.23 270.192C479.23 269.088 478.903 268.009 478.29 267.091C477.677 266.174 476.805 265.458 475.786 265.036C474.766 264.613 473.645 264.503 472.562 264.718C471.48 264.934 470.486 265.465 469.705 266.246C468.925 267.026 468.394 268.021 468.178 269.103C467.963 270.186 468.073 271.308 468.496 272.328C468.918 273.347 469.633 274.219 470.551 274.832C471.468 275.445 472.547 275.773 473.651 275.773C475.129 275.768 476.546 275.179 477.591 274.133C478.637 273.088 479.226 271.671 479.23 270.192Z" fill="#BDFF00" stroke="black" stroke-linecap="round" stroke-linejoin="round"/>
<path d="M498.231 270.192C498.235 269.084 497.909 268 497.296 267.077C496.683 266.155 495.811 265.435 494.788 265.008C493.766 264.582 492.64 264.469 491.553 264.683C490.467 264.897 489.468 265.429 488.684 266.211C487.899 266.993 487.365 267.99 487.147 269.077C486.93 270.163 487.04 271.289 487.463 272.313C487.886 273.337 488.603 274.212 489.524 274.828C490.445 275.444 491.527 275.773 492.635 275.773C494.115 275.768 495.533 275.179 496.581 274.134C497.629 273.089 498.222 271.672 498.231 270.192Z" fill="#BDFF00" stroke="black" stroke-linecap="round" stroke-linejoin="round"/>
<path d="M106.767 24.6025H227.275C230.145 24.6025 232.899 25.7431 234.929 27.7735C236.958 29.8038 238.099 32.5576 238.099 35.4289V118.99H95.9433V35.4289C95.9433 32.5576 97.0837 29.8038 99.1136 27.7735C101.144 25.7431 103.897 24.6025 106.767 24.6025Z" fill="#BDFF00" stroke="black" stroke-linecap="round" stroke-linejoin="round"/>
<path d="M238.116 105.583H95.9433V119.024H238.116V105.583Z" fill="black" stroke="black" stroke-linecap="round" stroke-linejoin="round"/>
<path d="M231.598 110.175H102.444V114.432H231.598V110.175Z" fill="white" stroke="black" stroke-linecap="round" stroke-linejoin="round"/>
<path d="M167.021 87.131C177.867 87.131 186.659 78.3371 186.659 67.4893C186.659 56.6414 177.867 47.8475 167.021 47.8475C156.175 47.8475 147.383 56.6414 147.383 67.4893C147.383 78.3371 156.175 87.131 167.021 87.131Z" fill="black" stroke="black" stroke-linecap="round" stroke-linejoin="round"/>
<path d="M158.157 55.255L179.353 67.4892L158.157 79.7067V55.255Z" fill="white" stroke="black" stroke-linecap="round" stroke-linejoin="round"/>
<path d="M176.605 153.43H41.6715C39.0619 153.43 36.9464 155.546 36.9464 158.157V209.59C36.9464 212.201 39.0619 214.317 41.6715 214.317H176.605C179.215 214.317 181.33 212.201 181.33 209.59V158.157C181.33 155.546 179.215 153.43 176.605 153.43Z" fill="black" stroke="black" stroke-linecap="round" stroke-linejoin="round"/>
<path d="M54.1377 161.726L54.8415 162.899C51.6579 164.676 48.6921 167.793 48.6921 171.447C48.6513 172.074 48.7363 172.704 48.9418 173.298C49.1474 173.892 49.4695 174.44 49.8893 174.908C50.3091 175.376 50.8181 175.756 51.3865 176.025C51.9549 176.294 52.5712 176.447 53.1994 176.474C53.6685 176.474 53.9869 176.24 53.9869 175.77C53.9869 175.301 53.7523 175.15 53.2832 175.067C52.6505 174.895 52.0993 174.504 51.7279 173.964C51.3566 173.424 51.1892 172.769 51.2557 172.117C51.2679 171.597 51.3858 171.084 51.6022 170.611C51.8187 170.137 52.1291 169.713 52.5147 169.363C52.9002 169.014 53.3529 168.746 53.8451 168.577C54.3372 168.408 54.8587 168.341 55.3776 168.38C55.9422 168.382 56.5006 168.497 57.0199 168.718C57.5392 168.94 58.0087 169.263 58.4008 169.67C58.793 170.076 59.0996 170.557 59.3027 171.084C59.5058 171.61 59.6012 172.173 59.5833 172.737C59.5751 173.446 59.4241 174.147 59.1393 174.796C58.8544 175.446 58.4417 176.031 57.9255 176.518C57.4094 177.004 56.8006 177.382 56.1354 177.628C55.4702 177.874 54.7623 177.983 54.0539 177.949C53.1733 178.006 52.2905 177.878 51.4627 177.571C50.6349 177.265 49.8807 176.789 49.2488 176.173C48.6169 175.557 48.1215 174.814 47.7947 173.994C47.4679 173.175 47.3169 172.295 47.3516 171.413C47.3014 167.173 50.5687 163.754 54.1377 161.726ZM68.5309 161.726L69.2346 162.899C66.0343 164.676 63.0853 167.793 63.0853 171.447C63.0422 172.075 63.1255 172.705 63.3302 173.3C63.5349 173.896 63.8569 174.444 64.2771 174.913C64.6973 175.382 65.2072 175.761 65.7767 176.029C66.3462 176.298 66.9636 176.449 67.5926 176.474C68.0617 176.474 68.3801 176.24 68.3801 175.77C68.3801 175.301 68.1455 175.15 67.6763 175.067C67.0436 174.895 66.4924 174.504 66.1211 173.964C65.7497 173.424 65.5824 172.769 65.6489 172.117C65.6587 171.596 65.775 171.082 65.9906 170.608C66.2062 170.133 66.5166 169.708 66.9027 169.358C67.2888 169.008 67.7424 168.74 68.2357 168.572C68.7289 168.404 69.2513 168.338 69.7708 168.38C70.3353 168.382 70.8938 168.497 71.413 168.718C71.9323 168.94 72.4019 169.263 72.794 169.67C73.1861 170.076 73.4928 170.557 73.6959 171.084C73.899 171.61 73.9944 172.173 73.9765 172.737C73.966 173.446 73.8134 174.145 73.5278 174.793C73.2421 175.442 72.8293 176.027 72.3137 176.513C71.7981 176.999 71.1902 177.376 70.526 177.623C69.8618 177.87 69.1549 177.981 68.4471 177.949C67.567 178.004 66.6854 177.873 65.8588 177.566C65.0322 177.259 64.279 176.782 63.6477 176.167C63.0164 175.551 62.5209 174.81 62.1932 173.991C61.8655 173.173 61.7127 172.294 61.7448 171.413C61.6778 167.173 64.9452 163.754 68.5309 161.726Z" fill="#BDFF00"/>
<path d="M82.3209 174.128H164.474" stroke="white" stroke-linecap="round" stroke-linejoin="round"/>
<path d="M82.3209 181.184H164.474" stroke="white" stroke-linecap="round" stroke-linejoin="round"/>
<path d="M82.3209 188.256H164.474" stroke="white" stroke-linecap="round" stroke-linejoin="round"/>
<path d="M82.3209 195.312H164.474" stroke="white" stroke-linecap="round" stroke-linejoin="round"/>
<path d="M149.952 308.72C166.912 305.952 178.417 289.955 175.649 272.992C172.881 256.028 156.888 244.521 139.928 247.29C122.968 250.058 111.463 266.055 114.231 283.018C116.999 299.982 132.992 311.489 149.952 308.72Z" fill="black" stroke="black" stroke-linecap="round" stroke-linejoin="round"/>
<path d="M164.659 295.37C174.228 284.472 173.152 267.879 162.257 258.308C151.361 248.737 134.771 249.813 125.203 260.711C115.634 271.609 116.709 288.202 127.605 297.773C138.501 307.344 155.091 306.268 164.659 295.37Z" fill="white" stroke="black" stroke-linecap="round" stroke-linejoin="round"/>
<path d="M144.937 259.013V278.002H157.789" stroke="black" stroke-width="2" stroke-linecap="round" stroke-linejoin="round"/>
<path d="M339.605 278.069C339.605 278.069 357.45 316.162 357.45 318.173C357.45 320.185 341.616 328.799 338.6 330.609C336.26 331.942 333.849 333.145 331.378 334.212L333.188 351.859C333.188 351.859 360.449 345.642 371.876 339.424C383.304 333.206 382.902 326.184 380.254 315.76C377.607 305.336 359.997 265.047 359.997 265.047L339.605 278.069Z" fill="white"/>
<g style="mix-blend-mode:multiply" opacity="0.5">
<path d="M371.826 339.424C383.254 333.206 382.851 326.184 380.204 315.76C377.557 305.336 359.946 265.047 359.946 265.047L357.098 266.857L356.193 268.533C356.193 268.533 372.63 308.889 373.619 322.33C374.289 331.363 356.109 342.625 344.095 349.061C353.01 346.698 365.141 343.061 371.826 339.424Z" fill="#BDFF00"/>
</g>
<path d="M339.605 278.069C339.605 278.069 357.45 316.162 357.45 318.173C357.45 320.185 341.616 328.799 338.6 330.609C336.26 331.942 333.849 333.145 331.378 334.212L333.188 351.859C333.188 351.859 360.449 345.642 371.876 339.424C383.304 333.206 382.902 326.184 380.254 315.76C377.607 305.336 359.997 265.047 359.997 265.047L339.605 278.069Z" stroke="black" stroke-linecap="round" stroke-linejoin="round"/>
<path d="M210.854 269.656C210.854 269.656 197.835 317.369 197.449 325.799C197.064 334.229 223.303 350.854 224.259 351.859C225.214 352.865 222.767 322.866 222.767 322.866L231.665 279.292L210.854 269.656Z" fill="white"/>
<g style="mix-blend-mode:multiply" opacity="0.5">
<path d="M216.819 273.56L216.534 272.27L210.854 269.656C210.854 269.656 197.835 317.369 197.449 325.799C197.064 334.229 223.303 350.854 224.259 351.859C224.644 352.262 224.493 347.77 224.175 342.223C216.367 335.603 205.157 326.285 203.85 322.363" fill="#BDFF00"/>
</g>
<path d="M210.854 269.656C210.854 269.656 197.835 317.369 197.449 325.799C197.064 334.229 223.303 350.854 224.259 351.859C225.214 352.865 222.767 322.866 222.767 322.866L231.665 279.292L210.854 269.656Z" stroke="black" stroke-linecap="round" stroke-linejoin="round"/>
<path d="M271.996 221.724C271.996 221.724 266.969 225.344 257.167 225.746C247.365 226.149 246.896 219.043 234.714 219.043C219.952 219.043 201.437 265.751 201.437 265.751C201.437 265.751 210.653 274.784 219.684 278.588C224.68 280.777 229.933 282.326 235.317 283.197L236.725 313.883H336.153L337.343 283.197L368.425 263.036C368.425 263.036 353.177 235.768 345.771 225.545C338.365 215.322 325.916 219.127 322.112 221.724C318.308 224.322 307.032 224.942 302.876 224.339C297.455 223.139 292.098 221.668 286.824 219.931C286.824 219.931 280.424 214.602 271.996 221.724Z" fill="#BDFF00" stroke="black" stroke-linecap="round" stroke-linejoin="round"/>
<path d="M236.323 232.551L235.921 283.482" stroke="black" stroke-width="0.5" stroke-linecap="round" stroke-linejoin="round"/>
<path d="M239.925 237.176C239.925 237.176 241.333 262.03 246.627 275.873" stroke="black" stroke-width="0.5" stroke-linecap="round" stroke-linejoin="round"/>
<path d="M247.549 277.868C248.693 281.246 250.099 284.53 251.755 287.688" stroke="black" stroke-width="0.5" stroke-linecap="round" stroke-linejoin="round"/>
<path d="M243.125 234.361C245.028 243.398 247.713 252.252 251.151 260.824" stroke="black" stroke-width="0.5" stroke-linecap="round" stroke-linejoin="round"/>
<path d="M329.552 238.768C329.552 238.768 324.743 258.427 320.52 267.259" stroke="black" stroke-width="0.5" stroke-linecap="round" stroke-linejoin="round"/>
<path d="M337.36 283.281L337.159 243.578" stroke="black" stroke-width="0.5" stroke-linecap="round" stroke-linejoin="round"/>
<path d="M335.148 244.383C335.148 244.383 331.529 269.522 322.715 282.677" stroke="black" stroke-width="0.5" stroke-linecap="round" stroke-linejoin="round"/>
<path d="M330.741 277.667C330.741 277.667 326.72 285.292 323.922 289.297" stroke="black" stroke-width="0.5" stroke-linecap="round" stroke-linejoin="round"/>
<path d="M266.382 224.741C266.382 224.741 269.197 241.986 273.202 250.802C277.207 259.617 284.227 261.427 290.243 258.829C296.258 256.232 300.665 243.377 300.296 226.987" stroke="black" stroke-width="0.5" stroke-linecap="round" stroke-linejoin="round"/>
<path d="M252.157 188.642C252.157 188.642 248.336 182.038 245.337 185.441C242.338 188.843 247.75 196.669 250.749 199.267C253.749 201.865 255.96 200.272 255.776 197.474C255.592 194.675 252.157 188.642 252.157 188.642Z" fill="#BDFF00" stroke="black" stroke-linecap="round" stroke-linejoin="round"/>
<path opacity="0.5" d="M252.157 188.642C252.157 188.642 248.336 182.038 245.337 185.441C242.338 188.843 247.75 196.669 250.749 199.267C253.749 201.865 255.96 200.272 255.776 197.474C255.592 194.675 252.157 188.642 252.157 188.642Z" fill="white"/>
<path d="M252.157 188.642C252.157 188.642 248.336 182.038 245.337 185.441C242.338 188.843 247.75 196.669 250.749 199.267C253.749 201.865 255.96 200.272 255.776 197.474C255.592 194.675 252.157 188.642 252.157 188.642Z" stroke="black" stroke-linecap="round" stroke-linejoin="round"/>
<path d="M312.796 188.642C312.796 188.642 316.599 182.038 319.615 185.441C322.631 188.843 317.202 196.669 314.203 199.267C311.204 201.865 308.975 200.272 309.176 197.474C309.378 194.675 312.796 188.642 312.796 188.642Z" fill="#BDFF00" stroke="black" stroke-linecap="round" stroke-linejoin="round"/>
<path opacity="0.5" d="M312.796 188.642C312.796 188.642 316.599 182.038 319.615 185.441C322.631 188.843 317.202 196.669 314.203 199.267C311.204 201.865 308.975 200.272 309.176 197.474C309.378 194.675 312.796 188.642 312.796 188.642Z" fill="white"/>
<path d="M312.796 188.642C312.796 188.642 316.599 182.038 319.615 185.441C322.631 188.843 317.202 196.669 314.203 199.267C311.204 201.865 308.975 200.272 309.176 197.474C309.378 194.675 312.796 188.642 312.796 188.642Z" stroke="black" stroke-linecap="round" stroke-linejoin="round"/>
<path d="M270.186 220.333C272.079 228.891 274.49 237.325 277.408 245.589C281.027 254.606 287.83 254.606 290.645 248.79C293.46 242.975 295.253 221.305 295.253 221.305C295.253 221.305 276.402 223.936 270.186 220.333Z" fill="white" stroke="black" stroke-linecap="round" stroke-linejoin="round"/>
<path d="M252.559 190.854C252.559 190.854 257.77 209.289 267.639 220.132C277.508 230.975 281.044 233.539 286.288 232.752C291.533 231.964 297.112 225.143 304.921 210.965C312.729 196.787 313.298 185.91 313.952 184.904C314.605 183.899 312.276 163.855 301.117 155.224C289.958 146.593 277.458 142.805 266.634 152.224C255.81 161.643 248.94 177.011 252.559 190.854Z" fill="white"/>
<g style="mix-blend-mode:multiply" opacity="0.5">
<path d="M301.067 155.157C289.84 146.542 277.408 142.738 266.583 152.157C255.759 161.575 248.94 177.011 252.559 190.854C252.559 190.854 253.548 194.407 255.508 199.233C255.502 198.615 255.587 198 255.759 197.407C258.155 189.815 265.226 175.117 289.019 181.854C307.92 187.184 305.608 203.809 303.848 212.674L304.87 210.831C312.695 196.602 313.248 185.776 313.902 184.77C314.555 183.765 312.293 163.788 301.067 155.157Z" fill="#BDFF00"/>
</g>
<path d="M252.559 190.854C252.559 190.854 257.77 209.289 267.639 220.132C277.508 230.975 281.044 233.539 286.288 232.752C291.533 231.964 297.112 225.143 304.921 210.965C312.729 196.787 313.298 185.91 313.952 184.904C314.605 183.899 312.276 163.855 301.117 155.224C289.958 146.593 277.458 142.805 266.634 152.224C255.81 161.643 248.94 177.011 252.559 190.854Z" stroke="black" stroke-linecap="round" stroke-linejoin="round"/>
<path d="M286.238 200.474C285.616 204.388 285.28 208.342 285.233 212.305C285.434 216.311 286.64 217.518 284.83 217.92C283.021 218.322 281.027 215.506 281.027 215.506" stroke="black" stroke-linecap="round" stroke-linejoin="round"/>
<path d="M266.181 203.691C267.343 204.53 268.731 204.999 270.163 205.034C271.596 205.07 273.005 204.672 274.207 203.892" stroke="black" stroke-linecap="round" stroke-linejoin="round"/>
<path d="M291.65 203.691C292.809 204.529 294.194 204.996 295.623 205.032C297.053 205.068 298.46 204.671 299.659 203.892" stroke="black" stroke-linecap="round" stroke-linejoin="round"/>
<path d="M278.983 196.937C278.983 196.937 275.162 187.502 262.545 191.91" stroke="black" stroke-linecap="round" stroke-linejoin="round"/>
<path d="M289.489 195.781C289.489 195.781 292.689 186.547 304.116 191.96" stroke="black" stroke-linecap="round" stroke-linejoin="round"/>
<path d="M281.412 204.378C281.412 209.54 275.498 213.713 268.192 213.713C260.887 213.713 254.955 209.54 254.955 204.378C254.955 199.217 260.484 197.071 267.79 197.071C275.095 197.071 281.412 199.233 281.412 204.378Z" stroke="black" stroke-linecap="round" stroke-linejoin="round"/>
<path d="M311.891 204.378C311.891 209.54 305.959 213.713 298.654 213.713C291.348 213.713 285.434 209.54 285.434 204.378C285.434 199.217 290.946 197.071 298.252 197.071C305.557 197.071 311.891 199.233 311.891 204.378Z" stroke="black" stroke-linecap="round" stroke-linejoin="round"/>
<path d="M142.943 365.149L142.122 568.321C142.122 568.961 142.376 569.575 142.829 570.028C143.281 570.48 143.895 570.735 144.535 570.735C145.159 570.735 145.758 570.492 146.206 570.057C146.653 569.621 146.913 569.029 146.931 568.405L152.728 365.434L142.943 365.149Z" fill="white" stroke="black" stroke-linecap="round" stroke-linejoin="round"/>
<path d="M129.27 412.645L128.483 622.688C128.481 623.006 128.541 623.32 128.662 623.614C128.782 623.908 128.96 624.175 129.185 624.4C129.409 624.624 129.676 624.802 129.97 624.922C130.263 625.043 130.578 625.104 130.896 625.101C131.519 625.102 132.117 624.862 132.567 624.43C133.017 623.999 133.283 623.411 133.308 622.789L139.089 412.913L129.27 412.645Z" fill="white" stroke="black" stroke-linecap="round" stroke-linejoin="round"/>
<path d="M423.769 365.149L424.59 568.321C424.592 568.637 424.532 568.951 424.412 569.244C424.293 569.536 424.117 569.802 423.894 570.027C423.671 570.251 423.407 570.429 423.115 570.551C422.823 570.672 422.51 570.735 422.194 570.735C421.568 570.735 420.967 570.492 420.517 570.058C420.067 569.623 419.803 569.03 419.781 568.405L414 365.434L423.769 365.149Z" fill="white" stroke="black" stroke-linecap="round" stroke-linejoin="round"/>
<path d="M437.458 412.645L438.279 622.688C438.282 623.006 438.221 623.32 438.1 623.614C437.98 623.908 437.802 624.175 437.578 624.4C437.353 624.624 437.086 624.802 436.793 624.922C436.499 625.043 436.184 625.104 435.867 625.101C435.245 625.102 434.648 624.861 434.201 624.429C433.754 623.998 433.492 623.41 433.47 622.789L427.673 412.913L437.458 412.645Z" fill="white" stroke="black" stroke-linecap="round" stroke-linejoin="round"/>
<path d="M224.476 421.377L223.99 607.806C223.937 608.271 224.067 608.739 224.351 609.111C224.635 609.482 225.053 609.73 225.515 609.8C225.967 609.738 226.378 609.505 226.664 609.15C226.951 608.795 227.091 608.345 227.057 607.89L230.693 421.594L224.476 421.377Z" fill="white" stroke="black" stroke-linecap="round" stroke-linejoin="round"/>
<path d="M342.453 415.377L342.906 578.075C342.945 578.469 342.83 578.862 342.587 579.174C342.344 579.486 341.99 579.693 341.599 579.751C341.209 579.693 340.857 579.486 340.616 579.173C340.376 578.861 340.265 578.467 340.309 578.075L337.209 415.511L342.453 415.377Z" fill="white" stroke="black" stroke-linecap="round" stroke-linejoin="round"/>
<path d="M222.65 415.377L223.102 578.075C223.141 578.469 223.027 578.862 222.784 579.174C222.541 579.486 222.187 579.693 221.795 579.751C221.406 579.693 221.053 579.486 220.813 579.173C220.572 578.861 220.462 578.467 220.505 578.075L217.406 415.511L222.65 415.377Z" fill="white" stroke="black" stroke-linecap="round" stroke-linejoin="round"/>
<path d="M339.085 421.377L339.605 607.806C339.658 608.271 339.529 608.739 339.244 609.111C338.96 609.482 338.543 609.73 338.08 609.8C337.63 609.734 337.222 609.5 336.936 609.146C336.65 608.792 336.509 608.344 336.539 607.89L332.903 421.594L339.085 421.377Z" fill="white" stroke="black" stroke-linecap="round" stroke-linejoin="round"/>
<path d="M280.96 434.432C322.14 434.432 355.523 426.801 355.523 417.388C355.523 407.975 322.14 400.344 280.96 400.344C239.78 400.344 206.397 407.975 206.397 417.388C206.397 426.801 239.78 434.432 280.96 434.432Z" fill="white" stroke="black" stroke-linecap="round" stroke-linejoin="round"/>
<path d="M244.65 562.07C244.65 562.07 240.746 567.667 243.544 570.45C246.343 573.232 249.124 572.125 248.839 574.924C248.554 577.723 244.097 587.209 240.193 597.264C236.289 607.32 244.382 617.375 251.922 614.593C259.462 611.811 258.625 583.857 259.73 578.829C260.836 573.801 261.691 572.963 261.406 568.221C261.121 563.478 260.853 558.45 257.217 557.88C253.581 557.31 246.326 560.126 244.65 562.07Z" fill="white" stroke="black" stroke-linecap="round" stroke-linejoin="round"/>
<path d="M256.631 606.884C251.604 604.974 243.896 605.359 239.557 605.795C241.014 612.113 246.594 616.554 251.922 614.593C254.151 613.772 255.608 610.789 256.631 606.884Z" fill="#BDFF00" stroke="black" stroke-linecap="round" stroke-linejoin="round"/>
<path d="M236.004 549.786C236.004 549.786 244.097 563.478 246.326 567.098C248.554 570.718 256.111 569.612 256.949 564.584C257.787 559.556 253.866 545.596 253.866 545.596L237.11 549.786H236.004Z" fill="white" stroke="black" stroke-linecap="round" stroke-linejoin="round"/>
<path d="M216.735 527.999C216.735 527.999 214.49 531.635 215.613 534.149C216.735 536.663 219.801 543.92 221.762 547.557C223.722 551.193 232.653 553.422 242.975 551.746C253.296 550.071 259.177 545.311 259.462 541.121C259.747 536.931 257.787 531.35 256.379 524.647C254.972 517.943 251.353 518.228 246.326 518.228C241.299 518.228 220.924 524.094 216.735 527.999Z" fill="#BDFF00" stroke="black" stroke-linecap="round" stroke-linejoin="round"/>
<path d="M246.895 445.879C247.046 439.007 251.017 435.622 251.319 430.913C251.792 424.687 251.277 418.425 249.794 412.36L242.154 401.919C220.17 402.204 204.42 402.573 204.168 402.657C203.331 402.925 202.761 407.684 202.208 411.589C202.208 411.589 192.875 412.779 194.551 438.756C194.785 442.376 204.202 484.257 204.889 489.034C209.078 518.211 218.411 532.825 218.411 532.825C218.411 532.825 219.249 536.462 230.14 535.624C241.031 534.786 251.922 527.529 251.922 527.529C251.922 527.529 246.326 470.732 246.895 445.879Z" fill="black" stroke="black" stroke-linecap="round" stroke-linejoin="round"/>
<path d="M200.7 407.332C200.7 407.332 189.155 409.008 182.084 417.086C175.014 425.164 181.012 430.494 194.752 429.052C208.491 427.611 224.342 413.55 225.013 412.796C225.683 412.042 210.686 402.489 200.7 407.332Z" fill="white" stroke="black" stroke-linecap="round" stroke-linejoin="round"/>
<path d="M221.192 412.36C228.548 412.739 235.846 413.862 242.975 415.712C252.475 418.511 269.231 424.092 273.135 424.092C277.039 424.092 275.933 409.561 275.933 406.779C275.933 403.997 225.666 402.305 219.517 402.305C213.367 402.305 221.192 412.36 221.192 412.36Z" fill="white" stroke="black" stroke-linecap="round" stroke-linejoin="round"/>
<path d="M275.933 406.779C275.933 406.779 271.459 409.008 269.784 417.388C268.108 425.767 265.88 430.242 269.231 432.471C272.582 434.7 287.109 436.376 289.338 434.147C291.566 431.918 297.716 420.74 298.838 413.483C299.961 406.226 275.933 406.779 275.933 406.779Z" fill="#BDFF00" stroke="black" stroke-linecap="round" stroke-linejoin="round"/>
<path d="M294.917 409.561C292.32 412.543 290.247 415.943 288.785 419.617C287.601 423.463 286.666 427.382 285.987 431.348C291.332 432.814 296.559 434.685 301.62 436.946C310.567 440.851 325.647 443.65 340.158 447.001C354.668 450.353 358.589 453.705 363.616 453.705C368.643 453.705 374.792 449.783 382.617 440.298C390.442 430.812 383.723 410.684 375.915 404.533C368.106 398.383 326.2 393.372 320.621 395.048C315.041 396.724 294.917 409.561 294.917 409.561Z" fill="black" stroke="black" stroke-linecap="round" stroke-linejoin="round"/>
<path d="M190.127 429.203C189.024 424.189 186.788 419.494 183.592 415.477C183.073 415.963 182.57 416.466 182.084 417.019C175.868 424.092 179.755 429.119 190.127 429.203Z" fill="#BDFF00" stroke="black" stroke-linecap="round" stroke-linejoin="round"/>
<path d="M246.041 433.627C246.041 433.627 240.277 495.318 228.515 504.921" stroke="white" stroke-width="0.5" stroke-linecap="round" stroke-linejoin="round"/>
<path d="M241.969 492.184C241.969 492.184 237.395 512.295 225.398 520.289" stroke="white" stroke-width="0.5" stroke-linecap="round" stroke-linejoin="round"/>
<path d="M316.147 422.416C316.147 422.416 298.269 423.538 309.998 431.348C321.727 439.158 342.956 444.203 342.956 444.203" stroke="white" stroke-width="0.5" stroke-linecap="round" stroke-linejoin="round"/>
<path d="M445.937 401.282L439.905 395.852L425.964 365.686C425.303 364.313 424.264 363.158 422.971 362.353C421.677 361.549 420.181 361.13 418.658 361.144H147.886C146.36 361.127 144.861 361.544 143.564 362.349C142.267 363.153 141.226 364.311 140.564 365.686L123.188 403.26L120.323 402.204V410.802L120.457 410.701C120.628 411.848 121.21 412.894 122.094 413.643C122.979 414.393 124.107 414.794 125.266 414.774H441.262C442.483 414.802 443.667 414.354 444.564 413.525C445.461 412.697 446.002 411.552 446.071 410.332L445.937 401.282Z" fill="black" stroke="black" stroke-linecap="round" stroke-linejoin="round"/>
<path d="M441.262 406.913H125.266C124.483 406.944 123.706 406.776 123.006 406.425C122.306 406.073 121.707 405.549 121.265 404.903C120.823 404.256 120.552 403.508 120.478 402.728C120.404 401.948 120.529 401.162 120.842 400.444L140.564 357.826C141.223 356.448 142.263 355.288 143.561 354.483C144.858 353.679 146.359 353.262 147.886 353.284H418.658C420.182 353.265 421.68 353.683 422.974 354.488C424.269 355.293 425.306 356.451 425.964 357.826L445.685 400.444C445.998 401.162 446.124 401.948 446.05 402.728C445.976 403.508 445.705 404.256 445.263 404.903C444.821 405.549 444.222 406.073 443.522 406.425C442.822 406.776 442.045 406.944 441.262 406.913Z" fill="white" stroke="black" stroke-linecap="round" stroke-linejoin="round"/>
<g style="mix-blend-mode:multiply" opacity="0.5">
<path d="M141.267 378.289C141.267 378.289 134.113 383.199 138.587 384.992C143.06 386.786 194.484 385.445 200.75 383.652C207.017 381.858 214.155 365.317 214.155 362.636C214.155 359.954 205.14 358.027 201.823 357.876C198.505 357.725 154.672 360.39 154.672 360.39L141.267 378.289Z" fill="#BDFF00"/>
</g>
<g style="mix-blend-mode:multiply" opacity="0.5">
<path d="M397.077 386.786C407.201 386.786 415.408 383.379 415.408 379.177C415.408 374.975 407.201 371.568 397.077 371.568C386.953 371.568 378.746 374.975 378.746 379.177C378.746 383.379 386.953 386.786 397.077 386.786Z" fill="#BDFF00"/>
</g>
<g style="mix-blend-mode:multiply" opacity="0.5">
<path d="M280.357 396.187C316.66 396.187 346.089 390.68 346.089 383.886C346.089 377.092 316.66 371.585 280.357 371.585C244.054 371.585 214.624 377.092 214.624 383.886C214.624 390.68 244.054 396.187 280.357 396.187Z" fill="#BDFF00"/>
</g>
<path d="M383.656 349.245C383.656 349.245 382.449 344.435 378.445 346.044C374.44 347.653 374.842 358.278 375.63 364.295C376.417 370.311 381.846 367.496 381.846 367.496V363.893C381.846 363.893 379.852 365.485 378.847 363.289C377.842 361.094 378.043 350.049 379.048 350.251C380.053 350.452 382.047 353.854 382.047 353.854C382.047 353.854 382.65 353.468 383.656 349.245Z" fill="#BDFF00" stroke="black" stroke-linecap="round" stroke-linejoin="round"/>
<path d="M380.774 350.049V376.395C380.774 379.495 387.895 382.009 396.692 382.009C405.488 382.009 412.593 379.495 412.593 376.395V350.049H380.774Z" fill="#BDFF00" stroke="black" stroke-linecap="round" stroke-linejoin="round"/>
<path d="M412.593 350.049C412.593 352.731 405.472 354.893 396.692 354.893C387.912 354.893 380.774 352.731 380.774 350.049C380.774 347.368 387.895 345.206 396.692 345.206C405.488 345.206 412.593 347.385 412.593 350.049Z" fill="white" stroke="black" stroke-linecap="round" stroke-linejoin="round"/>
<path d="M410.515 350.049C410.515 352.379 404.316 354.256 396.692 354.256C389.068 354.256 382.851 352.379 382.851 350.049C382.851 347.72 389.051 345.843 396.692 345.843C404.332 345.843 410.515 347.72 410.515 350.049Z" fill="white" stroke="black" stroke-linecap="round" stroke-linejoin="round"/>
<path d="M386.018 352.731C392.983 354.764 400.384 354.764 407.348 352.731C400.384 350.698 392.983 350.698 386.018 352.731Z" fill="black" stroke="black" stroke-linecap="round" stroke-linejoin="round"/>
<path d="M139.307 362.083L139.491 371.099L200.231 371.702V361.278L139.307 362.083Z" fill="white" stroke="black" stroke-linecap="round" stroke-linejoin="round"/>
<path d="M200.231 371.702L209.061 352.664V347.05L199.845 363.088L200.231 371.702Z" fill="white" stroke="black" stroke-linecap="round" stroke-linejoin="round"/>
<path d="M139.307 370.311L139.491 379.328L200.231 379.931V369.507L139.307 370.311Z" fill="white" stroke="black" stroke-linecap="round" stroke-linejoin="round"/>
<path d="M200.231 379.931L209.061 360.876V355.261L199.845 371.3L200.231 379.931Z" fill="white" stroke="black" stroke-linecap="round" stroke-linejoin="round"/>
<path d="M162.748 339.223C162.748 339.223 164.156 336.424 162.145 335.218C160.134 334.011 157.939 336.894 156.733 337.815C155.527 338.737 130.276 355.463 129.471 358.077C128.667 360.692 129.471 366.457 134.884 367.094C140.296 367.73 145.105 364.094 147.517 363.49C149.93 362.887 150.869 362.686 150.869 362.686L167.507 340.229L162.748 339.223Z" fill="white" stroke="black" stroke-linecap="round" stroke-linejoin="round"/>
<path d="M134.884 367.11C140.296 367.714 145.105 364.11 147.517 363.507C149.93 362.904 150.868 362.703 150.868 362.703L151.472 361.881L135.839 358.697C134.989 357.897 133.896 357.402 132.733 357.293C131.571 357.184 130.405 357.466 129.421 358.094C128.667 360.675 129.471 366.49 134.884 367.11Z" fill="white" stroke="black" stroke-linecap="round" stroke-linejoin="round"/>
<path d="M135.889 358.731H182.805C197.449 358.731 201.856 357.926 201.856 357.926L210.871 339.273C210.871 339.273 182.386 341.083 173.589 340.48C169.954 340.375 166.334 339.972 162.765 339.273L135.889 358.731Z" fill="white" stroke="black" stroke-linecap="round" stroke-linejoin="round"/>
<path d="M135.889 358.731L136.693 362.334C136.693 362.334 174.779 362.535 184.799 362.535C194.819 362.535 202.443 362.937 202.443 362.937L201.839 357.909L135.889 358.731Z" fill="white" stroke="black" stroke-linecap="round" stroke-linejoin="round"/>
<path d="M202.443 362.887L210.854 343.631V339.223L201.839 357.876L202.443 362.887Z" fill="white" stroke="black" stroke-linecap="round" stroke-linejoin="round"/>
<path d="M337.762 385.411H222.901C222.647 385.414 222.394 385.365 222.159 385.269C221.923 385.174 221.709 385.032 221.528 384.853C221.347 384.674 221.204 384.46 221.106 384.225C221.008 383.991 220.958 383.739 220.958 383.484C220.958 383.229 221.008 382.978 221.106 382.743C221.204 382.508 221.347 382.294 221.528 382.115C221.709 381.936 221.923 381.794 222.159 381.699C222.394 381.603 222.647 381.555 222.901 381.557H337.762C338.015 381.554 338.267 381.603 338.502 381.699C338.737 381.795 338.95 381.937 339.129 382.116C339.309 382.296 339.451 382.509 339.547 382.744C339.643 382.979 339.691 383.23 339.689 383.484C339.691 383.738 339.643 383.989 339.547 384.224C339.451 384.459 339.309 384.672 339.129 384.852C338.95 385.031 338.737 385.173 338.502 385.269C338.267 385.365 338.015 385.414 337.762 385.411Z" fill="white" stroke="black" stroke-linecap="round" stroke-linejoin="round"/>
<path d="M338.734 381.523H221.913C221.485 381.524 221.074 381.361 220.762 381.068C220.451 380.776 220.263 380.375 220.237 379.948L213.887 303.61C213.858 303.373 213.88 303.134 213.952 302.906C214.023 302.679 214.142 302.47 214.3 302.292C214.459 302.115 214.653 301.973 214.871 301.877C215.089 301.78 215.324 301.731 215.562 301.733H345.101C345.339 301.731 345.574 301.78 345.792 301.877C346.01 301.973 346.204 302.115 346.363 302.292C346.521 302.47 346.64 302.679 346.712 302.906C346.783 303.134 346.805 303.373 346.776 303.61L340.426 379.948C340.4 380.378 340.21 380.781 339.895 381.074C339.58 381.368 339.164 381.528 338.734 381.523Z" fill="white" stroke="black" stroke-linecap="round" stroke-linejoin="round"/>
<path d="M291.348 342.944C291.348 347.502 286.405 351.189 280.323 351.189C274.241 351.189 269.281 347.502 269.281 342.944C269.281 338.385 274.224 334.715 280.323 334.715C286.422 334.715 291.348 338.402 291.348 342.944Z" fill="white" stroke="black" stroke-linecap="round" stroke-linejoin="round"/>
<path d="M405.505 283.314C407.297 281.916 408.556 279.947 409.074 277.734C409.451 276.074 409.411 274.346 408.957 272.706" stroke="black" stroke-linecap="round" stroke-linejoin="round"/>
<path d="M392.134 343.078C392.134 343.078 403.277 336.374 399.641 328.715C396.005 321.056 383.706 315.978 383.706 304.045C383.706 293.755 394.647 289.951 401.785 285.828" stroke="black" stroke-linecap="round" stroke-linejoin="round"/>
<path d="M402.422 342.86C402.422 342.86 408.639 338.72 408.639 332.151C408.639 327.743 403.93 324.86 397.714 317.771" stroke="black" stroke-linecap="round" stroke-linejoin="round"/>
<path d="M394.279 313.481C394.279 313.481 390.207 310.28 393.206 304.263" stroke="black" stroke-linecap="round" stroke-linejoin="round"/>
<path d="M299.944 137.928C301.938 137.509 306.211 135.867 309.093 129.18C309.137 129.079 309.161 128.97 309.163 128.859C309.165 128.749 309.146 128.639 309.105 128.536C309.065 128.433 309.004 128.34 308.927 128.26C308.85 128.181 308.759 128.118 308.657 128.074C308.452 127.989 308.222 127.987 308.016 128.068C307.81 128.149 307.643 128.308 307.551 128.51C304.904 134.643 301.117 136.001 299.542 136.303C302.361 132.891 303.917 128.611 303.949 124.186C303.949 112.555 293.175 103.136 279.888 103.136C266.6 103.136 255.826 112.555 255.826 124.186C255.835 128.433 257.249 132.558 259.848 135.917C257.318 135.783 253.045 136.856 247.633 143.174C247.478 143.333 247.392 143.547 247.392 143.769C247.392 143.991 247.478 144.204 247.633 144.364C247.788 144.493 247.984 144.564 248.186 144.565C248.308 144.565 248.428 144.538 248.538 144.486C248.648 144.434 248.745 144.358 248.822 144.263C255.743 136.202 260.317 137.56 261.238 137.928C259.674 138.789 258.207 139.817 256.865 140.995C249.141 147.95 244.432 161.106 245.036 172.067C245.714 179.336 248.348 186.286 252.659 192.178C258.27 188.162 262.922 182.954 266.282 176.927C268.786 172.5 271.024 167.928 272.984 163.235C272.984 168.145 273.621 174.078 276.201 178.318C278.063 181.667 280.79 184.454 284.097 186.388C287.404 188.322 291.17 189.332 295.001 189.312C296.324 189.331 297.645 189.202 298.939 188.926C299.053 188.898 299.159 188.846 299.251 188.774C299.344 188.702 299.42 188.611 299.475 188.507C305.943 189.882 312.377 189.764 313.365 188.39C314.957 186.195 317.219 179.34 317.973 170.961C319.347 156.749 310.4 144.414 299.944 137.928ZM277.76 177.296C274.509 171.983 274.609 163.318 274.995 158.341L275.213 157.771C275.367 162.89 276.672 167.909 279.03 172.455C281.388 177.002 284.74 180.959 288.835 184.033C291.098 185.597 293.607 186.77 296.258 187.502C292.153 187.787 283.708 186.999 277.76 177.296Z" fill="black"/>
<path d="M278.044 150.917C278.044 150.917 276.67 161.073 289.572 171.028C302.474 180.983 314.706 177.061 314.706 177.061" stroke="white" stroke-width="0.5" stroke-linecap="round" stroke-linejoin="round"/>
<path d="M279.938 147.565C279.938 147.565 293.527 167.357 312.293 162.196" stroke="white" stroke-width="0.5" stroke-linecap="round" stroke-linejoin="round"/>
<path d="M273.219 140.978C271.076 139.89 268.675 139.411 266.279 139.595C263.882 139.778 261.582 140.616 259.63 142.017C252.408 146.827 248.789 158.19 248.789 158.19" stroke="white" stroke-width="0.5" stroke-linecap="round" stroke-linejoin="round"/>
<path d="M273.571 146.492C273.571 146.492 267.723 144.934 264.104 148.554C262.34 150.152 260.831 152.012 259.63 154.067" stroke="white" stroke-width="0.5" stroke-linecap="round" stroke-linejoin="round"/>
</g>
<defs>
<clipPath id="clip0">
<rect width="577" height="649" fill="white"/>
</clipPath>
</defs>
</svg>
