<svg width="608" height="439" viewBox="0 0 608 439" fill="none" xmlns="http://www.w3.org/2000/svg">
<rect x="59.4141" y="37.3323" width="546.04" height="398.826" stroke="black" stroke-width="4"/>
<g clip-path="url(#clip0)">
<rect width="114.65" height="70.6646" transform="translate(0.0891113)" fill="black"/>
<path d="M8.3571 2.76025L106.471 2.76025C109.515 2.76025 111.983 5.23186 111.983 8.28092V62.3835C111.983 65.4326 109.515 67.9042 106.471 67.9042H8.3571C5.31282 67.9042 2.84509 65.4326 2.84509 62.3835L2.84509 8.28092C2.84509 5.23186 5.31282 2.76025 8.3571 2.76025Z" stroke="black" stroke-width="10"/>
<path d="M16.6251 54.1026L16.6251 16.562H27.6491L38.6731 30.3637L49.6971 16.562H60.7212V54.1026H49.6971V32.572L38.6731 46.3736L27.6491 32.572V54.1026H16.6251ZM85.5252 54.1026L68.9892 35.8844H80.0132V16.562H91.0372V35.8844H102.061L85.5252 54.1026Z" fill="#FFFCFC"/>
</g>
<path d="M102.814 115.779L101.93 122.919H106.758V124.789H101.692L100.91 131.249H99.0741L99.8561 124.789H92.8861L92.0701 131.249H90.2341L91.0161 124.789H86.1881V122.919H91.2541L92.1381 115.779H87.2761V113.909H92.3761L93.1581 107.449H95.0281L94.2121 113.909H101.216L101.998 107.449H103.834L103.052 113.909H107.846V115.779H102.814ZM100.978 115.779H94.0081L93.0901 122.919H100.094L100.978 115.779ZM141.54 107.449V131.249H139.058V120.267H124.166V131.249H121.65V107.449H124.166V118.057H139.058V107.449H141.54ZM164.371 123.055H149.411C149.547 124.913 150.261 126.421 151.553 127.577C152.845 128.71 154.477 129.277 156.449 129.277C157.559 129.277 158.579 129.084 159.509 128.699C160.438 128.291 161.243 127.701 161.923 126.931L163.283 128.495C162.489 129.447 161.492 130.172 160.291 130.671C159.112 131.169 157.809 131.419 156.381 131.419C154.545 131.419 152.913 131.033 151.485 130.263C150.079 129.469 148.98 128.381 148.187 126.999C147.393 125.616 146.997 124.052 146.997 122.307C146.997 120.561 147.371 118.997 148.119 117.615C148.889 116.232 149.932 115.155 151.247 114.385C152.584 113.614 154.08 113.229 155.735 113.229C157.389 113.229 158.874 113.614 160.189 114.385C161.503 115.155 162.535 116.232 163.283 117.615C164.031 118.975 164.405 120.539 164.405 122.307L164.371 123.055ZM155.735 115.303C154.012 115.303 152.561 115.858 151.383 116.969C150.227 118.057 149.569 119.485 149.411 121.253H162.093C161.934 119.485 161.265 118.057 160.087 116.969C158.931 115.858 157.48 115.303 155.735 115.303ZM175.076 113.229C177.411 113.229 179.201 113.818 180.448 114.997C181.695 116.153 182.318 117.875 182.318 120.165V131.249H180.006V128.461C179.462 129.39 178.657 130.115 177.592 130.637C176.549 131.158 175.303 131.419 173.852 131.419C171.857 131.419 170.271 130.943 169.092 129.991C167.913 129.039 167.324 127.781 167.324 126.217C167.324 124.698 167.868 123.474 168.956 122.545C170.067 121.615 171.823 121.151 174.226 121.151H179.904V120.063C179.904 118.521 179.473 117.354 178.612 116.561C177.751 115.745 176.493 115.337 174.838 115.337C173.705 115.337 172.617 115.529 171.574 115.915C170.531 116.277 169.636 116.787 168.888 117.445L167.8 115.643C168.707 114.872 169.795 114.283 171.064 113.875C172.333 113.444 173.671 113.229 175.076 113.229ZM174.226 129.515C175.586 129.515 176.753 129.209 177.728 128.597C178.703 127.962 179.428 127.055 179.904 125.877V122.953H174.294C171.234 122.953 169.704 124.018 169.704 126.149C169.704 127.191 170.101 128.019 170.894 128.631C171.687 129.22 172.798 129.515 174.226 129.515ZM205.261 106.021V131.249H202.949V127.713C202.224 128.914 201.261 129.832 200.059 130.467C198.881 131.101 197.543 131.419 196.047 131.419C194.37 131.419 192.851 131.033 191.491 130.263C190.131 129.492 189.066 128.415 188.295 127.033C187.525 125.65 187.139 124.075 187.139 122.307C187.139 120.539 187.525 118.963 188.295 117.581C189.066 116.198 190.131 115.133 191.491 114.385C192.851 113.614 194.37 113.229 196.047 113.229C197.498 113.229 198.801 113.535 199.957 114.147C201.136 114.736 202.099 115.609 202.847 116.765V106.021H205.261ZM196.251 129.277C197.498 129.277 198.62 128.993 199.617 128.427C200.637 127.837 201.431 127.01 201.997 125.945C202.587 124.879 202.881 123.667 202.881 122.307C202.881 120.947 202.587 119.734 201.997 118.669C201.431 117.603 200.637 116.787 199.617 116.221C198.62 115.631 197.498 115.337 196.251 115.337C194.982 115.337 193.837 115.631 192.817 116.221C191.82 116.787 191.027 117.603 190.437 118.669C189.871 119.734 189.587 120.947 189.587 122.307C189.587 123.667 189.871 124.879 190.437 125.945C191.027 127.01 191.82 127.837 192.817 128.427C193.837 128.993 194.982 129.277 196.251 129.277ZM211.984 113.365H214.398V131.249H211.984V113.365ZM213.208 109.455C212.709 109.455 212.29 109.285 211.95 108.945C211.61 108.605 211.44 108.197 211.44 107.721C211.44 107.267 211.61 106.871 211.95 106.531C212.29 106.191 212.709 106.021 213.208 106.021C213.707 106.021 214.126 106.191 214.466 106.531C214.806 106.848 214.976 107.233 214.976 107.687C214.976 108.185 214.806 108.605 214.466 108.945C214.126 109.285 213.707 109.455 213.208 109.455ZM230.227 113.229C232.471 113.229 234.25 113.886 235.565 115.201C236.902 116.493 237.571 118.385 237.571 120.879V131.249H235.157V121.117C235.157 119.258 234.692 117.841 233.763 116.867C232.834 115.892 231.508 115.405 229.785 115.405C227.858 115.405 226.328 115.983 225.195 117.139C224.084 118.272 223.529 119.847 223.529 121.865V131.249H221.115V113.365H223.427V116.663C224.084 115.575 224.991 114.736 226.147 114.147C227.326 113.535 228.686 113.229 230.227 113.229ZM260.749 113.365V129.073C260.749 132.11 260.001 134.354 258.505 135.805C257.032 137.278 254.799 138.015 251.807 138.015C250.153 138.015 248.577 137.765 247.081 137.267C245.608 136.791 244.407 136.122 243.477 135.261L244.701 133.425C245.563 134.195 246.605 134.796 247.829 135.227C249.076 135.657 250.379 135.873 251.739 135.873C254.006 135.873 255.672 135.34 256.737 134.275C257.803 133.232 258.335 131.6 258.335 129.379V127.101C257.587 128.234 256.601 129.095 255.377 129.685C254.176 130.274 252.839 130.569 251.365 130.569C249.688 130.569 248.158 130.206 246.775 129.481C245.415 128.733 244.339 127.701 243.545 126.387C242.775 125.049 242.389 123.542 242.389 121.865C242.389 120.187 242.775 118.691 243.545 117.377C244.339 116.062 245.415 115.042 246.775 114.317C248.135 113.591 249.665 113.229 251.365 113.229C252.884 113.229 254.255 113.535 255.479 114.147C256.703 114.759 257.689 115.643 258.437 116.799V113.365H260.749ZM251.603 128.427C252.895 128.427 254.063 128.155 255.105 127.611C256.148 127.044 256.953 126.262 257.519 125.265C258.109 124.267 258.403 123.134 258.403 121.865C258.403 120.595 258.109 119.473 257.519 118.499C256.953 117.501 256.148 116.731 255.105 116.187C254.085 115.62 252.918 115.337 251.603 115.337C250.311 115.337 249.144 115.609 248.101 116.153C247.081 116.697 246.277 117.467 245.687 118.465C245.121 119.462 244.837 120.595 244.837 121.865C244.837 123.134 245.121 124.267 245.687 125.265C246.277 126.262 247.081 127.044 248.101 127.611C249.144 128.155 250.311 128.427 251.603 128.427ZM276.908 107.449H279.424V129.073H292.752V131.249H276.908V107.449ZM311.726 123.055H296.766C296.902 124.913 297.616 126.421 298.908 127.577C300.2 128.71 301.832 129.277 303.804 129.277C304.915 129.277 305.935 129.084 306.864 128.699C307.793 128.291 308.598 127.701 309.278 126.931L310.638 128.495C309.845 129.447 308.847 130.172 307.646 130.671C306.467 131.169 305.164 131.419 303.736 131.419C301.9 131.419 300.268 131.033 298.84 130.263C297.435 129.469 296.335 128.381 295.542 126.999C294.749 125.616 294.352 124.052 294.352 122.307C294.352 120.561 294.726 118.997 295.474 117.615C296.245 116.232 297.287 115.155 298.602 114.385C299.939 113.614 301.435 113.229 303.09 113.229C304.745 113.229 306.229 113.614 307.544 114.385C308.859 115.155 309.89 116.232 310.638 117.615C311.386 118.975 311.76 120.539 311.76 122.307L311.726 123.055ZM303.09 115.303C301.367 115.303 299.917 115.858 298.738 116.969C297.582 118.057 296.925 119.485 296.766 121.253H309.448C309.289 119.485 308.621 118.057 307.442 116.969C306.286 115.858 304.835 115.303 303.09 115.303ZM331.37 113.365L323.414 131.249H320.932L313.01 113.365H315.526L322.224 128.597L328.99 113.365H331.37ZM349.843 123.055H334.883C335.019 124.913 335.733 126.421 337.025 127.577C338.317 128.71 339.949 129.277 341.921 129.277C343.032 129.277 344.052 129.084 344.981 128.699C345.911 128.291 346.715 127.701 347.395 126.931L348.755 128.495C347.962 129.447 346.965 130.172 345.763 130.671C344.585 131.169 343.281 131.419 341.853 131.419C340.017 131.419 338.385 131.033 336.957 130.263C335.552 129.469 334.453 128.381 333.659 126.999C332.866 125.616 332.469 124.052 332.469 122.307C332.469 120.561 332.843 118.997 333.591 117.615C334.362 116.232 335.405 115.155 336.719 114.385C338.057 113.614 339.553 113.229 341.207 113.229C342.862 113.229 344.347 113.614 345.661 114.385C346.976 115.155 348.007 116.232 348.755 117.615C349.503 118.975 349.877 120.539 349.877 122.307L349.843 123.055ZM341.207 115.303C339.485 115.303 338.034 115.858 336.855 116.969C335.699 118.057 335.042 119.485 334.883 121.253H347.565C347.407 119.485 346.738 118.057 345.559 116.969C344.403 115.858 342.953 115.303 341.207 115.303ZM354.791 106.021H357.205V131.249H354.791V106.021ZM377.818 107.449V131.249H375.37V109.625H369.76V107.449H377.818Z" fill="black"/>
<path d="M98.6701 207.419L97.9941 212.879H101.686V214.309H97.8121L97.2141 219.249H95.8101L96.4081 214.309H91.0781L90.4541 219.249H89.0501L89.6481 214.309H85.9561V212.879H89.8301L90.5061 207.419H86.7881V205.989H90.6881L91.2861 201.049H92.7161L92.0921 205.989H97.4481L98.0461 201.049H99.4501L98.8521 205.989H102.518V207.419H98.6701ZM97.2661 207.419H91.9361L91.2341 212.879H96.5901L97.2661 207.419ZM116.774 207.419L116.098 212.879H119.79V214.309H115.916L115.318 219.249H113.914L114.512 214.309H109.182L108.558 219.249H107.154L107.752 214.309H104.06V212.879H107.934L108.61 207.419H104.892V205.989H108.792L109.39 201.049H110.82L110.196 205.989H115.552L116.15 201.049H117.554L116.956 205.989H120.622V207.419H116.774ZM115.37 207.419H110.04L109.338 212.879H114.694L115.37 207.419ZM146.388 201.049V219.249H144.49V210.851H133.102V219.249H131.178V201.049H133.102V209.161H144.49V201.049H146.388ZM163.846 212.983H152.406C152.51 214.404 153.056 215.557 154.044 216.441C155.032 217.307 156.28 217.741 157.788 217.741C158.638 217.741 159.418 217.593 160.128 217.299C160.839 216.987 161.454 216.536 161.974 215.947L163.014 217.143C162.408 217.871 161.645 218.425 160.726 218.807C159.825 219.188 158.828 219.379 157.736 219.379C156.332 219.379 155.084 219.084 153.992 218.495C152.918 217.888 152.077 217.056 151.47 215.999C150.864 214.941 150.56 213.745 150.56 212.411C150.56 211.076 150.846 209.88 151.418 208.823C152.008 207.765 152.805 206.942 153.81 206.353C154.833 205.763 155.977 205.469 157.242 205.469C158.508 205.469 159.643 205.763 160.648 206.353C161.654 206.942 162.442 207.765 163.014 208.823C163.586 209.863 163.872 211.059 163.872 212.411L163.846 212.983ZM157.242 207.055C155.925 207.055 154.816 207.479 153.914 208.329C153.03 209.161 152.528 210.253 152.406 211.605H162.104C161.983 210.253 161.472 209.161 160.57 208.329C159.686 207.479 158.577 207.055 157.242 207.055ZM172.033 205.469C173.818 205.469 175.187 205.919 176.141 206.821C177.094 207.705 177.571 209.022 177.571 210.773V219.249H175.803V217.117C175.387 217.827 174.771 218.382 173.957 218.781C173.159 219.179 172.206 219.379 171.097 219.379C169.571 219.379 168.358 219.015 167.457 218.287C166.555 217.559 166.105 216.597 166.105 215.401C166.105 214.239 166.521 213.303 167.353 212.593C168.202 211.882 169.545 211.527 171.383 211.527H175.725V210.695C175.725 209.516 175.395 208.623 174.737 208.017C174.078 207.393 173.116 207.081 171.851 207.081C170.984 207.081 170.152 207.228 169.355 207.523C168.557 207.8 167.873 208.19 167.301 208.693L166.469 207.315C167.162 206.725 167.994 206.275 168.965 205.963C169.935 205.633 170.958 205.469 172.033 205.469ZM171.383 217.923C172.423 217.923 173.315 217.689 174.061 217.221C174.806 216.735 175.361 216.042 175.725 215.141V212.905H171.435C169.095 212.905 167.925 213.719 167.925 215.349C167.925 216.146 168.228 216.779 168.835 217.247C169.441 217.697 170.291 217.923 171.383 217.923ZM195.116 199.957V219.249H193.348V216.545C192.793 217.463 192.056 218.165 191.138 218.651C190.236 219.136 189.214 219.379 188.07 219.379C186.787 219.379 185.626 219.084 184.586 218.495C183.546 217.905 182.731 217.082 182.142 216.025C181.552 214.967 181.258 213.763 181.258 212.411C181.258 211.059 181.552 209.854 182.142 208.797C182.731 207.739 183.546 206.925 184.586 206.353C185.626 205.763 186.787 205.469 188.07 205.469C189.179 205.469 190.176 205.703 191.06 206.171C191.961 206.621 192.698 207.289 193.27 208.173V199.957H195.116ZM188.226 217.741C189.179 217.741 190.037 217.524 190.8 217.091C191.58 216.64 192.186 216.007 192.62 215.193C193.07 214.378 193.296 213.451 193.296 212.411C193.296 211.371 193.07 210.443 192.62 209.629C192.186 208.814 191.58 208.19 190.8 207.757C190.037 207.306 189.179 207.081 188.226 207.081C187.255 207.081 186.38 207.306 185.6 207.757C184.837 208.19 184.23 208.814 183.78 209.629C183.346 210.443 183.13 211.371 183.13 212.411C183.13 213.451 183.346 214.378 183.78 215.193C184.23 216.007 184.837 216.64 185.6 217.091C186.38 217.524 187.255 217.741 188.226 217.741ZM200.257 205.573H202.103V219.249H200.257V205.573ZM201.193 202.583C200.811 202.583 200.491 202.453 200.231 202.193C199.971 201.933 199.841 201.621 199.841 201.257C199.841 200.91 199.971 200.607 200.231 200.347C200.491 200.087 200.811 199.957 201.193 199.957C201.574 199.957 201.895 200.087 202.155 200.347C202.415 200.589 202.545 200.884 202.545 201.231C202.545 201.612 202.415 201.933 202.155 202.193C201.895 202.453 201.574 202.583 201.193 202.583ZM214.207 205.469C215.923 205.469 217.284 205.971 218.289 206.977C219.312 207.965 219.823 209.412 219.823 211.319V219.249H217.977V211.501C217.977 210.079 217.622 208.996 216.911 208.251C216.2 207.505 215.186 207.133 213.869 207.133C212.396 207.133 211.226 207.575 210.359 208.459C209.51 209.325 209.085 210.53 209.085 212.073V219.249H207.239V205.573H209.007V208.095C209.51 207.263 210.203 206.621 211.087 206.171C211.988 205.703 213.028 205.469 214.207 205.469ZM237.548 205.573V217.585C237.548 219.907 236.976 221.623 235.832 222.733C234.705 223.859 232.998 224.423 230.71 224.423C229.444 224.423 228.24 224.232 227.096 223.851C225.969 223.487 225.05 222.975 224.34 222.317L225.276 220.913C225.934 221.502 226.732 221.961 227.668 222.291C228.621 222.62 229.618 222.785 230.658 222.785C232.391 222.785 233.665 222.377 234.48 221.563C235.294 220.765 235.702 219.517 235.702 217.819V216.077C235.13 216.943 234.376 217.602 233.44 218.053C232.521 218.503 231.498 218.729 230.372 218.729C229.089 218.729 227.919 218.451 226.862 217.897C225.822 217.325 224.998 216.536 224.392 215.531C223.802 214.508 223.508 213.355 223.508 212.073C223.508 210.79 223.802 209.646 224.392 208.641C224.998 207.635 225.822 206.855 226.862 206.301C227.902 205.746 229.072 205.469 230.372 205.469C231.533 205.469 232.582 205.703 233.518 206.171C234.454 206.639 235.208 207.315 235.78 208.199V205.573H237.548ZM230.554 217.091C231.542 217.091 232.434 216.883 233.232 216.467C234.029 216.033 234.644 215.435 235.078 214.673C235.528 213.91 235.754 213.043 235.754 212.073C235.754 211.102 235.528 210.244 235.078 209.499C234.644 208.736 234.029 208.147 233.232 207.731C232.452 207.297 231.559 207.081 230.554 207.081C229.566 207.081 228.673 207.289 227.876 207.705C227.096 208.121 226.48 208.71 226.03 209.473C225.596 210.235 225.38 211.102 225.38 212.073C225.38 213.043 225.596 213.91 226.03 214.673C226.48 215.435 227.096 216.033 227.876 216.467C228.673 216.883 229.566 217.091 230.554 217.091ZM249.904 201.049H251.828V217.585H262.02V219.249H249.904V201.049ZM276.53 212.983H265.09C265.194 214.404 265.74 215.557 266.728 216.441C267.716 217.307 268.964 217.741 270.472 217.741C271.321 217.741 272.101 217.593 272.812 217.299C273.523 216.987 274.138 216.536 274.658 215.947L275.698 217.143C275.091 217.871 274.329 218.425 273.41 218.807C272.509 219.188 271.512 219.379 270.42 219.379C269.016 219.379 267.768 219.084 266.676 218.495C265.601 217.888 264.761 217.056 264.154 215.999C263.547 214.941 263.244 213.745 263.244 212.411C263.244 211.076 263.53 209.88 264.102 208.823C264.691 207.765 265.489 206.942 266.494 206.353C267.517 205.763 268.661 205.469 269.926 205.469C271.191 205.469 272.327 205.763 273.332 206.353C274.337 206.942 275.126 207.765 275.698 208.823C276.27 209.863 276.556 211.059 276.556 212.411L276.53 212.983ZM269.926 207.055C268.609 207.055 267.499 207.479 266.598 208.329C265.714 209.161 265.211 210.253 265.09 211.605H274.788C274.667 210.253 274.155 209.161 273.254 208.329C272.37 207.479 271.261 207.055 269.926 207.055ZM291.551 205.573L285.467 219.249H283.569L277.511 205.573H279.435L284.557 217.221L289.731 205.573H291.551ZM305.678 212.983H294.238C294.342 214.404 294.888 215.557 295.876 216.441C296.864 217.307 298.112 217.741 299.62 217.741C300.47 217.741 301.25 217.593 301.96 217.299C302.671 216.987 303.286 216.536 303.806 215.947L304.846 217.143C304.24 217.871 303.477 218.425 302.558 218.807C301.657 219.188 300.66 219.379 299.568 219.379C298.164 219.379 296.916 219.084 295.824 218.495C294.75 217.888 293.909 217.056 293.302 215.999C292.696 214.941 292.392 213.745 292.392 212.411C292.392 211.076 292.678 209.88 293.25 208.823C293.84 207.765 294.637 206.942 295.642 206.353C296.665 205.763 297.809 205.469 299.074 205.469C300.34 205.469 301.475 205.763 302.48 206.353C303.486 206.942 304.274 207.765 304.846 208.823C305.418 209.863 305.704 211.059 305.704 212.411L305.678 212.983ZM299.074 207.055C297.757 207.055 296.648 207.479 295.746 208.329C294.862 209.161 294.36 210.253 294.238 211.605H303.936C303.815 210.253 303.304 209.161 302.402 208.329C301.518 207.479 300.409 207.055 299.074 207.055ZM309.462 199.957H311.308V219.249H309.462V199.957ZM334.455 217.585V219.249H321.689V217.923L329.255 210.513C330.208 209.577 330.849 208.771 331.179 208.095C331.525 207.401 331.699 206.708 331.699 206.015C331.699 204.94 331.326 204.108 330.581 203.519C329.853 202.912 328.804 202.609 327.435 202.609C325.303 202.609 323.647 203.285 322.469 204.637L321.143 203.493C321.853 202.661 322.755 202.019 323.847 201.569C324.956 201.118 326.204 200.893 327.591 200.893C329.445 200.893 330.91 201.335 331.985 202.219C333.077 203.085 333.623 204.281 333.623 205.807C333.623 206.743 333.415 207.644 332.999 208.511C332.583 209.377 331.794 210.374 330.633 211.501L324.445 217.585H334.455Z" fill="black"/>
<path d="M95.5621 291.149L95.0421 295.349H97.8821V296.449H94.9021L94.4421 300.249H93.3621L93.8221 296.449H89.7221L89.2421 300.249H88.1621L88.6221 296.449H85.7821V295.349H88.7621L89.2821 291.149H86.4221V290.049H89.4221L89.8821 286.249H90.9821L90.5021 290.049H94.6221L95.0821 286.249H96.1621L95.7021 290.049H98.5221V291.149H95.5621ZM94.4821 291.149H90.3821L89.8421 295.349H93.9621L94.4821 291.149ZM109.488 291.149L108.968 295.349H111.808V296.449H108.828L108.368 300.249H107.288L107.748 296.449H103.648L103.168 300.249H102.088L102.548 296.449H99.7079V295.349H102.688L103.208 291.149H100.348V290.049H103.348L103.808 286.249H104.908L104.428 290.049H108.548L109.008 286.249H110.088L109.628 290.049H112.448V291.149H109.488ZM108.408 291.149H104.308L103.768 295.349H107.888L108.408 291.149ZM123.414 291.149L122.894 295.349H125.734V296.449H122.754L122.294 300.249H121.214L121.674 296.449H117.574L117.094 300.249H116.014L116.474 296.449H113.634V295.349H116.614L117.134 291.149H114.274V290.049H117.274L117.734 286.249H118.834L118.354 290.049H122.474L122.934 286.249H124.014L123.554 290.049H126.374V291.149H123.414ZM122.334 291.149H118.234L117.694 295.349H121.814L122.334 291.149ZM146.194 286.249V300.249H144.734V293.789H135.974V300.249H134.494V286.249H135.974V292.489H144.734V286.249H146.194ZM159.623 295.429H150.823C150.903 296.522 151.323 297.409 152.083 298.089C152.843 298.755 153.803 299.089 154.963 299.089C155.617 299.089 156.217 298.975 156.763 298.749C157.31 298.509 157.783 298.162 158.183 297.709L158.983 298.629C158.517 299.189 157.93 299.615 157.223 299.909C156.53 300.202 155.763 300.349 154.923 300.349C153.843 300.349 152.883 300.122 152.043 299.669C151.217 299.202 150.57 298.562 150.103 297.749C149.637 296.935 149.403 296.015 149.403 294.989C149.403 293.962 149.623 293.042 150.063 292.229C150.517 291.415 151.13 290.782 151.903 290.329C152.69 289.875 153.57 289.649 154.543 289.649C155.517 289.649 156.39 289.875 157.163 290.329C157.937 290.782 158.543 291.415 158.983 292.229C159.423 293.029 159.643 293.949 159.643 294.989L159.623 295.429ZM154.543 290.869C153.53 290.869 152.677 291.195 151.983 291.849C151.303 292.489 150.917 293.329 150.823 294.369H158.283C158.19 293.329 157.797 292.489 157.103 291.849C156.423 291.195 155.57 290.869 154.543 290.869ZM165.921 289.649C167.294 289.649 168.347 289.995 169.081 290.689C169.814 291.369 170.181 292.382 170.181 293.729V300.249H168.821V298.609C168.501 299.155 168.027 299.582 167.401 299.889C166.787 300.195 166.054 300.349 165.201 300.349C164.027 300.349 163.094 300.069 162.401 299.509C161.707 298.949 161.361 298.209 161.361 297.289C161.361 296.395 161.681 295.675 162.321 295.129C162.974 294.582 164.007 294.309 165.421 294.309H168.761V293.669C168.761 292.762 168.507 292.075 168.001 291.609C167.494 291.129 166.754 290.889 165.781 290.889C165.114 290.889 164.474 291.002 163.861 291.229C163.247 291.442 162.721 291.742 162.281 292.129L161.641 291.069C162.174 290.615 162.814 290.269 163.561 290.029C164.307 289.775 165.094 289.649 165.921 289.649ZM165.421 299.229C166.221 299.229 166.907 299.049 167.481 298.689C168.054 298.315 168.481 297.782 168.761 297.089V295.369H165.461C163.661 295.369 162.761 295.995 162.761 297.249C162.761 297.862 162.994 298.349 163.461 298.709C163.927 299.055 164.581 299.229 165.421 299.229ZM183.677 285.409V300.249H182.317V298.169C181.89 298.875 181.323 299.415 180.617 299.789C179.923 300.162 179.137 300.349 178.257 300.349C177.27 300.349 176.377 300.122 175.577 299.669C174.777 299.215 174.15 298.582 173.697 297.769C173.243 296.955 173.017 296.029 173.017 294.989C173.017 293.949 173.243 293.022 173.697 292.209C174.15 291.395 174.777 290.769 175.577 290.329C176.377 289.875 177.27 289.649 178.257 289.649C179.11 289.649 179.877 289.829 180.557 290.189C181.25 290.535 181.817 291.049 182.257 291.729V285.409H183.677ZM178.377 299.089C179.11 299.089 179.77 298.922 180.357 298.589C180.957 298.242 181.423 297.755 181.757 297.129C182.103 296.502 182.277 295.789 182.277 294.989C182.277 294.189 182.103 293.475 181.757 292.849C181.423 292.222 180.957 291.742 180.357 291.409C179.77 291.062 179.11 290.889 178.377 290.889C177.63 290.889 176.957 291.062 176.357 291.409C175.77 291.742 175.303 292.222 174.957 292.849C174.623 293.475 174.457 294.189 174.457 294.989C174.457 295.789 174.623 296.502 174.957 297.129C175.303 297.755 175.77 298.242 176.357 298.589C176.957 298.922 177.63 299.089 178.377 299.089ZM187.631 289.729H189.051V300.249H187.631V289.729ZM188.351 287.429C188.058 287.429 187.811 287.329 187.611 287.129C187.411 286.929 187.311 286.689 187.311 286.409C187.311 286.142 187.411 285.909 187.611 285.709C187.811 285.509 188.058 285.409 188.351 285.409C188.645 285.409 188.891 285.509 189.091 285.709C189.291 285.895 189.391 286.122 189.391 286.389C189.391 286.682 189.291 286.929 189.091 287.129C188.891 287.329 188.645 287.429 188.351 287.429ZM198.362 289.649C199.682 289.649 200.729 290.035 201.502 290.809C202.289 291.569 202.682 292.682 202.682 294.149V300.249H201.262V294.289C201.262 293.195 200.989 292.362 200.442 291.789C199.896 291.215 199.116 290.929 198.102 290.929C196.969 290.929 196.069 291.269 195.402 291.949C194.749 292.615 194.422 293.542 194.422 294.729V300.249H193.002V289.729H194.362V291.669C194.749 291.029 195.282 290.535 195.962 290.189C196.656 289.829 197.456 289.649 198.362 289.649ZM216.317 289.729V298.969C216.317 300.755 215.877 302.075 214.997 302.929C214.13 303.795 212.817 304.229 211.057 304.229C210.083 304.229 209.157 304.082 208.277 303.789C207.41 303.509 206.703 303.115 206.157 302.609L206.877 301.529C207.383 301.982 207.997 302.335 208.717 302.589C209.45 302.842 210.217 302.969 211.017 302.969C212.35 302.969 213.33 302.655 213.957 302.029C214.583 301.415 214.897 300.455 214.897 299.149V297.809C214.457 298.475 213.877 298.982 213.157 299.329C212.45 299.675 211.663 299.849 210.797 299.849C209.81 299.849 208.91 299.635 208.097 299.209C207.297 298.769 206.663 298.162 206.197 297.389C205.743 296.602 205.517 295.715 205.517 294.729C205.517 293.742 205.743 292.862 206.197 292.089C206.663 291.315 207.297 290.715 208.097 290.289C208.897 289.862 209.797 289.649 210.797 289.649C211.69 289.649 212.497 289.829 213.217 290.189C213.937 290.549 214.517 291.069 214.957 291.749V289.729H216.317ZM210.937 298.589C211.697 298.589 212.383 298.429 212.997 298.109C213.61 297.775 214.083 297.315 214.417 296.729C214.763 296.142 214.937 295.475 214.937 294.729C214.937 293.982 214.763 293.322 214.417 292.749C214.083 292.162 213.61 291.709 212.997 291.389C212.397 291.055 211.71 290.889 210.937 290.889C210.177 290.889 209.49 291.049 208.877 291.369C208.277 291.689 207.803 292.142 207.457 292.729C207.123 293.315 206.957 293.982 206.957 294.729C206.957 295.475 207.123 296.142 207.457 296.729C207.803 297.315 208.277 297.775 208.877 298.109C209.49 298.429 210.177 298.589 210.937 298.589ZM225.822 286.249H227.302V298.969H235.142V300.249H225.822V286.249ZM246.303 295.429H237.503C237.583 296.522 238.003 297.409 238.763 298.089C239.523 298.755 240.483 299.089 241.643 299.089C242.296 299.089 242.896 298.975 243.443 298.749C243.99 298.509 244.463 298.162 244.863 297.709L245.663 298.629C245.196 299.189 244.61 299.615 243.903 299.909C243.21 300.202 242.443 300.349 241.603 300.349C240.523 300.349 239.563 300.122 238.723 299.669C237.896 299.202 237.25 298.562 236.783 297.749C236.316 296.935 236.083 296.015 236.083 294.989C236.083 293.962 236.303 293.042 236.743 292.229C237.196 291.415 237.81 290.782 238.583 290.329C239.37 289.875 240.25 289.649 241.223 289.649C242.196 289.649 243.07 289.875 243.843 290.329C244.616 290.782 245.223 291.415 245.663 292.229C246.103 293.029 246.323 293.949 246.323 294.989L246.303 295.429ZM241.223 290.869C240.21 290.869 239.356 291.195 238.663 291.849C237.983 292.489 237.596 293.329 237.503 294.369H244.963C244.87 293.329 244.476 292.489 243.783 291.849C243.103 291.195 242.25 290.869 241.223 290.869ZM257.858 289.729L253.178 300.249H251.718L247.058 289.729H248.538L252.478 298.689L256.458 289.729H257.858ZM268.725 295.429H259.925C260.005 296.522 260.425 297.409 261.185 298.089C261.945 298.755 262.905 299.089 264.065 299.089C264.718 299.089 265.318 298.975 265.865 298.749C266.412 298.509 266.885 298.162 267.285 297.709L268.085 298.629C267.618 299.189 267.032 299.615 266.325 299.909C265.632 300.202 264.865 300.349 264.025 300.349C262.945 300.349 261.985 300.122 261.145 299.669C260.318 299.202 259.672 298.562 259.205 297.749C258.738 296.935 258.505 296.015 258.505 294.989C258.505 293.962 258.725 293.042 259.165 292.229C259.618 291.415 260.232 290.782 261.005 290.329C261.792 289.875 262.672 289.649 263.645 289.649C264.618 289.649 265.492 289.875 266.265 290.329C267.038 290.782 267.645 291.415 268.085 292.229C268.525 293.029 268.745 293.949 268.745 294.989L268.725 295.429ZM263.645 290.869C262.632 290.869 261.778 291.195 261.085 291.849C260.405 292.489 260.018 293.329 259.925 294.369H267.385C267.292 293.329 266.898 292.489 266.205 291.849C265.525 291.195 264.672 290.869 263.645 290.869ZM271.635 285.409H273.055V300.249H271.635V285.409ZM286.061 292.249C287.527 292.329 288.641 292.729 289.401 293.449C290.174 294.155 290.561 295.082 290.561 296.229C290.561 297.029 290.367 297.742 289.981 298.369C289.594 298.982 289.021 299.469 288.261 299.829C287.501 300.189 286.574 300.369 285.481 300.369C284.467 300.369 283.507 300.209 282.601 299.889C281.707 299.555 280.987 299.115 280.441 298.569L281.141 297.429C281.607 297.909 282.227 298.302 283.001 298.609C283.774 298.902 284.601 299.049 285.481 299.049C286.627 299.049 287.514 298.802 288.141 298.309C288.767 297.802 289.081 297.109 289.081 296.229C289.081 295.362 288.767 294.682 288.141 294.189C287.514 293.695 286.567 293.449 285.301 293.449H284.301V292.389L288.181 287.529H281.021V286.249H290.021V287.269L286.061 292.249Z" fill="black"/>
<path d="M89.0421 367.273L91.0261 368.393L90.6581 369.065L88.6581 367.897V370.169H87.9221L87.9381 367.897L85.9381 369.065L85.5541 368.393L87.5541 367.273L85.5541 366.153L85.9381 365.465L87.9381 366.649L87.9221 364.377H88.6581V366.649L90.6581 365.465L91.0261 366.153L89.0421 367.273ZM95.5265 367.273L97.5105 368.393L97.1425 369.065L95.1425 367.897V370.169H94.4065L94.4225 367.897L92.4225 369.065L92.0385 368.393L94.0385 367.273L92.0385 366.153L92.4225 365.465L94.4225 366.649L94.4065 364.377H95.1425V366.649L97.1425 365.465L97.5105 366.153L95.5265 367.273ZM107.41 370.425C108.05 370.627 108.552 370.969 108.914 371.449C109.277 371.918 109.458 372.499 109.458 373.193C109.458 374.174 109.074 374.931 108.306 375.465C107.549 375.987 106.44 376.249 104.978 376.249H99.1864V365.049H104.658C106.024 365.049 107.069 365.31 107.794 365.833C108.53 366.355 108.898 367.065 108.898 367.961C108.898 368.505 108.765 368.99 108.498 369.417C108.242 369.843 107.88 370.179 107.41 370.425ZM101.762 367.001V369.641H104.338C104.978 369.641 105.464 369.529 105.794 369.305C106.125 369.081 106.29 368.75 106.29 368.313C106.29 367.875 106.125 367.55 105.794 367.337C105.464 367.113 104.978 367.001 104.338 367.001H101.762ZM104.786 374.297C105.469 374.297 105.981 374.185 106.322 373.961C106.674 373.737 106.85 373.39 106.85 372.921C106.85 371.993 106.162 371.529 104.786 371.529H101.762V374.297H104.786ZM116.845 376.441C115.682 376.441 114.631 376.19 113.693 375.689C112.765 375.187 112.034 374.499 111.501 373.625C110.978 372.739 110.717 371.747 110.717 370.649C110.717 369.55 110.978 368.563 111.501 367.689C112.034 366.803 112.765 366.11 113.693 365.609C114.631 365.107 115.682 364.857 116.845 364.857C118.007 364.857 119.053 365.107 119.981 365.609C120.909 366.11 121.639 366.803 122.173 367.689C122.706 368.563 122.973 369.55 122.973 370.649C122.973 371.747 122.706 372.739 122.173 373.625C121.639 374.499 120.909 375.187 119.981 375.689C119.053 376.19 118.007 376.441 116.845 376.441ZM116.845 374.233C117.506 374.233 118.103 374.083 118.637 373.785C119.17 373.475 119.586 373.049 119.885 372.505C120.194 371.961 120.349 371.342 120.349 370.649C120.349 369.955 120.194 369.337 119.885 368.793C119.586 368.249 119.17 367.827 118.637 367.529C118.103 367.219 117.506 367.065 116.845 367.065C116.183 367.065 115.586 367.219 115.053 367.529C114.519 367.827 114.098 368.249 113.789 368.793C113.49 369.337 113.341 369.955 113.341 370.649C113.341 371.342 113.49 371.961 113.789 372.505C114.098 373.049 114.519 373.475 115.053 373.785C115.586 374.083 116.183 374.233 116.845 374.233ZM124.921 365.049H127.513V374.137H133.129V376.249H124.921V365.049ZM134.577 365.049H139.665C140.881 365.049 141.953 365.283 142.881 365.753C143.82 366.211 144.545 366.862 145.057 367.705C145.58 368.547 145.841 369.529 145.841 370.649C145.841 371.769 145.58 372.75 145.057 373.593C144.545 374.435 143.82 375.091 142.881 375.561C141.953 376.019 140.881 376.249 139.665 376.249H134.577V365.049ZM139.537 374.121C140.657 374.121 141.548 373.811 142.209 373.193C142.881 372.563 143.217 371.715 143.217 370.649C143.217 369.582 142.881 368.739 142.209 368.121C141.548 367.491 140.657 367.177 139.537 367.177H137.169V374.121H139.537ZM150.308 367.273L152.292 368.393L151.924 369.065L149.924 367.897V370.169H149.188L149.204 367.897L147.204 369.065L146.82 368.393L148.82 367.273L146.82 366.153L147.204 365.465L149.204 366.649L149.188 364.377H149.924V366.649L151.924 365.465L152.292 366.153L150.308 367.273ZM156.792 367.273L158.776 368.393L158.408 369.065L156.408 367.897V370.169H155.672L155.688 367.897L153.688 369.065L153.304 368.393L155.304 367.273L153.304 366.153L153.688 365.465L155.688 366.649L155.672 364.377H156.408V366.649L158.408 365.465L158.776 366.153L156.792 367.273Z" fill="black"/>
<defs>
<clipPath id="clip0">
<rect width="114.65" height="70.6646" fill="white" transform="translate(0.0891113)"/>
</clipPath>
</defs>
</svg>
