<svg width="592" height="510" viewBox="0 0 592 510" fill="none" xmlns="http://www.w3.org/2000/svg">
<g clip-path="url(#clip0)">
<path d="M523.538 157.832C526.543 126.782 533.734 97.3861 521.022 67.527C497.69 12.7324 427.311 -16.359 372.623 9.59565C344.656 22.8311 320.742 42.1945 289.942 49.3019C206.811 68.48 78.4999 -33.6974 33.2533 85.2625C17.7208 126.08 23.9841 179.869 52.0696 213.99C61.0871 224.936 72.1042 234.465 78.7779 246.986C97.0381 281.252 71.1905 318.907 59.5379 350.871C31.8629 426.405 136.207 468.203 192.841 475.906C286.46 488.718 363.685 381.511 456.786 425.188C521.67 455.629 578.609 381.511 566.692 307.392C558.893 258.871 519.406 212.428 523.101 162.981C523.233 161.273 523.379 159.566 523.538 157.832Z" fill="#C6FF00"/>
<path opacity="0.7" d="M523.538 157.832C526.543 126.782 533.734 97.3861 521.022 67.527C497.69 12.7324 427.311 -16.359 372.623 9.59565C344.656 22.8311 320.742 42.1945 289.942 49.3019C206.811 68.48 78.4999 -33.6974 33.2533 85.2625C17.7208 126.08 23.9841 179.869 52.0696 213.99C61.0871 224.936 72.1042 234.465 78.7779 246.986C97.0381 281.252 71.1905 318.907 59.5379 350.871C31.8629 426.405 136.207 468.203 192.841 475.906C286.46 488.718 363.685 381.511 456.786 425.188C521.67 455.629 578.609 381.511 566.692 307.392C558.893 258.871 519.406 212.428 523.101 162.981C523.233 161.273 523.379 159.566 523.538 157.832Z" fill="white"/>
<path d="M77.7716 178.029C103.024 178.029 123.495 157.568 123.495 132.328C123.495 107.087 103.024 86.6257 77.7716 86.6257C52.5193 86.6257 32.0483 107.087 32.0483 132.328C32.0483 157.568 52.5193 178.029 77.7716 178.029Z" fill="white" stroke="#263238" stroke-linecap="round" stroke-linejoin="round"/>
<path d="M74.3685 173.49C99.6208 173.49 120.092 153.028 120.092 127.788C120.092 102.547 99.6208 82.0861 74.3685 82.0861C49.1162 82.0861 28.6452 102.547 28.6452 127.788C28.6452 153.028 49.1162 173.49 74.3685 173.49Z" fill="white" stroke="#263238" stroke-linecap="round" stroke-linejoin="round"/>
<path d="M74.3685 168.95C97.1124 168.95 115.55 150.521 115.55 127.788C115.55 105.055 97.1124 86.6257 74.3685 86.6257C51.6246 86.6257 33.1871 105.055 33.1871 127.788C33.1871 150.521 51.6246 168.95 74.3685 168.95Z" fill="#263238" stroke="#263238" stroke-linecap="round" stroke-linejoin="round"/>
<path d="M69.5353 96.8434C69.5353 96.8434 64.9934 85.4875 57.0485 77.5462C49.1035 69.605 16.7145 64.4829 16.7145 64.4829C21.9446 69.5251 26.7006 75.0365 30.9227 80.9477C38.2983 91.1655 62.7026 114.447 62.7026 114.447C62.7026 114.447 50.7852 104.229 39.98 103.091C29.1748 101.952 1.92359 107.63 0.255144 107.63C-1.4133 107.63 10.4777 112.17 19.0053 116.141C27.5329 120.111 60.4648 123.526 60.4648 123.526C60.4648 123.526 46.2698 127.497 36.6299 130.911C26.99 134.326 17.8533 159.288 17.8533 159.288C17.8533 159.288 30.3533 147.932 41.1453 145.1C51.9372 142.267 67.271 137.159 67.271 137.159C67.271 137.159 57.6178 147.945 55.3535 155.331C53.0892 162.716 54.7841 179.737 54.7841 179.737C54.7841 179.737 59.8954 163.854 66.1454 157.594C72.3955 151.334 79.1884 140.626 79.1884 140.626C82.3345 145.752 85.1818 151.055 87.716 156.509C92.2579 166.157 95.0916 180.332 95.0916 180.332C95.0916 180.332 102.48 164.45 101.911 156.509C101.342 148.567 92.8273 134.366 92.8273 134.366C92.8273 134.366 98.508 130.395 107.022 133.797C115.537 137.198 130.314 151.4 130.314 151.4C130.314 151.4 126.898 132.658 121.217 125.286C115.537 117.914 91.1191 115.624 91.1191 115.624C91.1191 115.624 104.758 107.683 113.272 105.976C121.787 104.269 133.135 108.252 133.135 108.252C133.135 108.252 120.079 90.0801 109.856 88.9419C99.6335 87.8037 84.2997 103.66 84.2997 103.66L88.8548 80.9477C89.9804 75.2697 87.716 61.0946 87.716 61.0946C87.716 61.0946 81.466 64.4961 74.0772 75.283C71.9148 78.3899 70.3985 81.8992 69.6183 85.6027C68.8382 89.3063 68.8099 93.1288 69.5353 96.8434Z" fill="#C6FF00"/>
<path opacity="0.5" d="M69.5353 96.8434C69.5353 96.8434 64.9934 85.4875 57.0485 77.5462C49.1035 69.605 16.7145 64.4829 16.7145 64.4829C21.9446 69.5251 26.7006 75.0365 30.9227 80.9477C38.2983 91.1655 62.7026 114.447 62.7026 114.447C62.7026 114.447 50.7852 104.229 39.98 103.091C29.1748 101.952 1.92359 107.63 0.255144 107.63C-1.4133 107.63 10.4777 112.17 19.0053 116.141C27.5329 120.111 60.4648 123.526 60.4648 123.526C60.4648 123.526 46.2698 127.497 36.6299 130.911C26.99 134.326 17.8533 159.288 17.8533 159.288C17.8533 159.288 30.3533 147.932 41.1453 145.1C51.9372 142.267 67.271 137.159 67.271 137.159C67.271 137.159 57.6178 147.945 55.3535 155.331C53.0892 162.716 54.7841 179.737 54.7841 179.737C54.7841 179.737 59.8954 163.854 66.1454 157.594C72.3955 151.334 79.1884 140.626 79.1884 140.626C82.3345 145.752 85.1818 151.055 87.716 156.509C92.2579 166.157 95.0916 180.332 95.0916 180.332C95.0916 180.332 102.48 164.45 101.911 156.509C101.342 148.567 92.8273 134.366 92.8273 134.366C92.8273 134.366 98.508 130.395 107.022 133.797C115.537 137.198 130.314 151.4 130.314 151.4C130.314 151.4 126.898 132.658 121.217 125.286C115.537 117.914 91.1191 115.624 91.1191 115.624C91.1191 115.624 104.758 107.683 113.272 105.976C121.787 104.269 133.135 108.252 133.135 108.252C133.135 108.252 120.079 90.0801 109.856 88.9419C99.6335 87.8037 84.2997 103.66 84.2997 103.66L88.8548 80.9477C89.9804 75.2697 87.716 61.0946 87.716 61.0946C87.716 61.0946 81.466 64.4961 74.0772 75.283C71.9148 78.3899 70.3985 81.8992 69.6183 85.6027C68.8382 89.3063 68.8099 93.1288 69.5353 96.8434Z" fill="black"/>
<path d="M80.7245 79.558C81.1217 77.93 81.5587 76.302 82.0486 74.7006" stroke="#263238" stroke-width="0.5" stroke-linecap="round" stroke-linejoin="round"/>
<path d="M42.7872 79.558C48.0839 83.436 54.7047 88.8228 58.174 93.4419C64.424 101.952 76.9241 120.124 76.9241 120.124C76.5661 107.919 77.534 95.7107 79.8108 83.7139" stroke="#263238" stroke-width="0.5" stroke-linecap="round" stroke-linejoin="round"/>
<path d="M34.8952 74.1315C34.8952 74.1315 36.5504 75.1903 39.0266 76.8977" stroke="#263238" stroke-width="0.5" stroke-linecap="round" stroke-linejoin="round"/>
<path d="M76.9241 120.125C76.9241 120.125 98.508 98.5508 107.592 96.8434C116.675 95.1361 124.634 101.952 124.634 101.952" stroke="#263238" stroke-width="0.5" stroke-linecap="round" stroke-linejoin="round"/>
<path d="M38.3513 138.164C33.0547 141.5 32.6177 143.459 32.6177 143.459" stroke="#263238" stroke-width="0.5" stroke-linecap="round" stroke-linejoin="round"/>
<path d="M124.064 139.991C124.064 139.991 120.661 131.467 108.731 127.497C96.7998 123.526 78.0761 122.957 78.0761 122.957C78.0761 122.957 51.7915 131.56 42.1781 136.047" stroke="#263238" stroke-width="0.5" stroke-linecap="round" stroke-linejoin="round"/>
<path d="M66.5824 119.714C72.9384 121.567 78.0629 122.957 78.0629 122.957" stroke="#263238" stroke-width="0.5" stroke-linecap="round" stroke-linejoin="round"/>
<path d="M26.5795 109.629C32.7501 109.999 40.6951 110.847 45.1178 112.739C48.7195 114.288 55.817 116.525 62.5173 118.523" stroke="#263238" stroke-width="0.5" stroke-linecap="round" stroke-linejoin="round"/>
<path d="M17.8533 109.338C17.8533 109.338 19.9322 109.338 22.991 109.457" stroke="#263238" stroke-width="0.5" stroke-linecap="round" stroke-linejoin="round"/>
<path d="M76.9241 126.358C76.9241 126.358 61.0342 150.182 59.8822 155.887C59.1997 159.252 58.8186 162.671 58.7434 166.104" stroke="#263238" stroke-width="0.5" stroke-linecap="round" stroke-linejoin="round"/>
<path d="M83.9951 133.863C87.054 137.834 90.7219 143.128 92.2579 147.363C94.0459 152.53 95.3752 157.845 96.2304 163.246" stroke="#263238" stroke-width="0.5" stroke-linecap="round" stroke-linejoin="round"/>
<path d="M79.1884 128.066C79.1884 128.066 80.5126 129.469 82.2208 131.626" stroke="#263238" stroke-width="0.5" stroke-linecap="round" stroke-linejoin="round"/>
<path d="M62.3186 101.741C62.3186 101.741 59.3922 89.8287 61.2063 78.7771C63.0204 67.7256 86.3654 44.6562 86.3654 44.6562C85.0679 51.8006 84.4252 59.0483 84.4454 66.3094C84.4454 78.9095 78.1556 112.051 78.1556 112.051C78.1556 112.051 81.8765 96.8038 89.9804 89.5508C98.0842 82.2978 123.548 71.0212 124.925 70.055C126.302 69.0888 119.271 79.7036 114.676 87.9096C110.081 96.1155 85.2796 118.126 85.2796 118.126C85.2796 118.126 99.1303 113.07 108.956 110.185C118.781 107.299 140.736 122.308 140.736 122.308C140.736 122.308 123.958 120.376 113.537 124.36C103.116 128.344 87.6763 133.135 87.6763 133.135C87.6763 133.135 101.818 136.272 107.962 140.944C114.107 145.616 122.687 160.479 122.687 160.479C122.687 160.479 109.26 150.54 100.534 149.11C91.8077 147.681 79.9829 142.903 79.9829 142.903C80.4314 148.898 81.2184 154.864 82.34 160.77C84.2865 171.266 90.2849 184.449 90.2849 184.449C90.2849 184.449 75.0173 175.846 70.833 169.056C66.6486 162.266 65.298 145.775 65.298 145.775C65.298 145.775 58.3594 145.854 53.3805 153.584C48.4017 161.313 44.7337 181.457 44.7337 181.457C44.7337 181.457 36.5769 164.251 36.8815 154.987C37.186 145.722 55.6978 129.601 55.6978 129.601C55.6978 129.601 39.9932 131.097 32.0748 134.67C24.1563 138.244 17.2441 148.104 17.2441 148.104C17.2441 148.104 17.2441 125.736 24.8978 118.854C32.5515 111.972 54.281 115.942 54.281 115.942L37.3317 100.152C33.0944 96.1817 26.6589 83.3434 26.6589 83.3434C26.6589 83.3434 33.73 82.4698 46.0182 86.9301C49.59 88.1801 52.8737 90.1354 55.674 92.6798C58.4744 95.2241 60.734 98.3055 62.3186 101.741Z" fill="#C6FF00"/>
<path d="M43.1448 94.2228C41.8206 93.1243 40.5759 92.0654 39.2517 91.0331" stroke="#263238" stroke-width="0.5" stroke-linecap="round" stroke-linejoin="round"/>
<path d="M73.958 72.1064C71.9056 78.3536 69.6148 86.5727 69.5618 92.3434C69.4559 102.932 69.9061 124.942 69.9061 124.942C63.0713 114.822 55.1548 105.476 46.2963 97.0684" stroke="#263238" stroke-width="0.5" stroke-linecap="round" stroke-linejoin="round"/>
<path d="M77.2154 63.0931C77.2154 63.0931 76.4739 64.9196 75.4675 67.7388" stroke="#263238" stroke-width="0.5" stroke-linecap="round" stroke-linejoin="round"/>
<path d="M69.9061 124.942C69.9061 124.942 39.7814 120.005 31.4127 123.923C23.044 127.841 20.5546 137.979 20.5546 137.979" stroke="#263238" stroke-width="0.5" stroke-linecap="round" stroke-linejoin="round"/>
<path d="M111.776 117.107C117.986 116.763 119.469 118.02 119.469 118.02" stroke="#263238" stroke-width="0.5" stroke-linecap="round" stroke-linejoin="round"/>
<path d="M43.211 168.566C43.211 168.566 41.0129 159.659 48.3752 149.481C55.7375 139.303 70.6476 127.92 70.6476 127.92C70.6476 127.92 97.0117 119.569 107.433 117.623" stroke="#263238" stroke-width="0.5" stroke-linecap="round" stroke-linejoin="round"/>
<path d="M78.0762 118.589C73.9977 123.791 70.6609 127.92 70.6609 127.92" stroke="#263238" stroke-width="0.5" stroke-linecap="round" stroke-linejoin="round"/>
<path d="M104.679 87.0758C99.8851 91.0464 93.9264 96.3406 91.4369 100.404C89.411 103.766 84.9486 109.669 80.6715 115.241" stroke="#263238" stroke-width="0.5" stroke-linecap="round" stroke-linejoin="round"/>
<path d="M111.591 81.7418C111.591 81.7418 109.909 82.9595 107.486 84.8389" stroke="#263238" stroke-width="0.5" stroke-linecap="round" stroke-linejoin="round"/>
<path d="M73.5475 130.038C73.5475 130.038 100.388 140.123 104.612 144.081C107.131 146.415 109.436 148.971 111.498 151.717" stroke="#263238" stroke-width="0.5" stroke-linecap="round" stroke-linejoin="round"/>
<path d="M72.1836 140.229C71.9983 145.232 72.0909 151.651 73.3489 156.019C74.9099 161.266 76.9351 166.364 79.4003 171.253" stroke="#263238" stroke-width="0.5" stroke-linecap="round" stroke-linejoin="round"/>
<path d="M72.7001 132.685C72.7001 132.685 72.4882 134.564 72.3293 137.344" stroke="#263238" stroke-width="0.5" stroke-linecap="round" stroke-linejoin="round"/>
<path d="M150.68 162.372H450.828C452.683 162.372 454.52 162.737 456.235 163.447C457.949 164.157 459.506 165.197 460.818 166.508C462.13 167.82 463.171 169.376 463.881 171.09C464.591 172.803 464.957 174.64 464.957 176.494V371.055C464.95 375.146 463.318 379.068 460.421 381.959C457.524 384.85 453.597 386.474 449.504 386.474H152.004C147.906 386.474 143.975 384.847 141.077 381.95C138.179 379.053 136.551 375.125 136.551 371.028V176.468C136.551 172.722 138.04 169.13 140.689 166.482C143.339 163.833 146.933 162.345 150.68 162.345V162.372Z" fill="white" stroke="#263238" stroke-linecap="round" stroke-linejoin="round"/>
<path d="M260.532 184.435H242.047V196.572H260.532V184.435Z" fill="#263238"/>
<path d="M200.641 259.308H183.479V276.329H200.641V259.308Z" fill="#263238"/>
<path d="M276.462 199.497H259.169V216.518H276.462V199.497Z" fill="#263238"/>
<path d="M239.121 184.435H220.635V196.572H239.121V184.435Z" fill="#263238"/>
<path d="M296.682 199.497H279.389V216.518H296.682V199.497Z" fill="#263238"/>
<path d="M281.944 184.435H263.459V196.572H281.944V184.435Z" fill="#263238"/>
<path d="M190.272 239.362H157.751V256.383H190.272V239.362Z" fill="#263238"/>
<path d="M236.035 199.497H218.742V216.518H236.035V199.497Z" fill="#263238"/>
<path d="M180.566 259.308H157.751V276.329H180.566V259.308Z" fill="#263238"/>
<path d="M303.343 184.435H284.857V196.572H303.343V184.435Z" fill="#263238"/>
<path d="M195.609 199.497H178.315V216.518H195.609V199.497Z" fill="#263238"/>
<path d="M196.311 184.435H177.825V196.572H196.311V184.435Z" fill="#263238"/>
<path d="M217.722 184.435H199.237V196.572H217.722V184.435Z" fill="#263238"/>
<path d="M215.815 199.497H198.522V216.518H215.815V199.497Z" fill="#263238"/>
<path d="M256.242 199.497H238.949V216.518H256.242V199.497Z" fill="#263238"/>
<path d="M388.976 184.435H370.491V196.572H388.976V184.435Z" fill="#263238"/>
<path d="M410.375 184.435H391.889V196.572H410.375V184.435Z" fill="#263238"/>
<path d="M397.742 199.497H380.449V216.518H397.742V199.497Z" fill="#263238"/>
<path d="M417.962 199.497H400.669V216.518H417.962V199.497Z" fill="#263238"/>
<path d="M449.941 259.308H424.477V276.329H449.941V259.308Z" fill="#263238"/>
<path d="M431.786 184.435H413.301V196.572H431.786V184.435Z" fill="#263238"/>
<path d="M175.402 199.497H157.751V216.518H175.402V199.497Z" fill="#263238"/>
<path d="M324.754 184.435H306.269V196.572H324.754V184.435Z" fill="#263238"/>
<path d="M346.153 184.435H327.667V196.572H346.153V184.435Z" fill="#263238"/>
<path d="M337.109 199.497H319.815V216.518H337.109V199.497Z" fill="#263238"/>
<path d="M377.535 199.497H360.242V216.518H377.535V199.497Z" fill="#263238"/>
<path d="M316.889 199.497H299.595V216.518H316.889V199.497Z" fill="#263238"/>
<path d="M357.315 199.497H340.022V216.518H357.315V199.497Z" fill="#263238"/>
<path d="M367.564 184.435H349.079V196.572H367.564V184.435Z" fill="#263238"/>
<path d="M341.227 259.308H324.066V276.329H341.227V259.308Z" fill="#263238"/>
<path d="M431.27 239.362H414.109V256.383H431.27V239.362Z" fill="#263238"/>
<path d="M411.182 239.362H394.021V256.383H411.182V239.362Z" fill="#263238"/>
<path d="M421.564 259.308H404.403V276.329H421.564V259.308Z" fill="#263238"/>
<path d="M401.476 259.308H384.315V276.329H401.476V259.308Z" fill="#263238"/>
<path d="M361.314 259.308H344.153V276.329H361.314V259.308Z" fill="#263238"/>
<path d="M381.389 259.308H364.228V276.329H381.389V259.308Z" fill="#263238"/>
<path d="M391.108 239.362H373.947V256.383H391.108V239.362Z" fill="#263238"/>
<path d="M371.021 239.362H353.859V256.383H371.021V239.362Z" fill="#263238"/>
<path d="M449.954 184.435H434.713V196.572H449.954V184.435Z" fill="#263238"/>
<path d="M174.912 184.435H157.751V196.572H174.912V184.435Z" fill="#263238"/>
<path d="M449.954 279.241H157.751V296.936H449.954V279.241Z" fill="#263238"/>
<path d="M449.941 199.497H420.875V216.518H449.941V199.497Z" fill="#263238"/>
<path d="M449.954 239.362H434.196V256.383H449.954V239.362Z" fill="#263238"/>
<path d="M429.337 236.331H426.41V219.43H409.249V236.331H406.336V219.43H389.161V236.331H386.248V219.43H369.087V236.331H366.161V219.43H349V236.331H346.086V219.43H328.925V236.331H325.999V219.43H308.838V236.331H305.911V219.43H288.75V236.331H285.837V219.43H268.676V236.331H265.75V219.43H248.588V236.331H245.662V219.43H228.501V236.331H225.588V219.43H208.427V236.331H205.5V219.43H188.339V236.331H185.413V219.43H157.751V236.45H449.941V219.43H429.337V236.331Z" fill="#263238"/>
<path d="M290.684 239.362H273.522V256.383H290.684V239.362Z" fill="#263238"/>
<path d="M350.933 239.362H333.772V256.383H350.933V239.362Z" fill="#263238"/>
<path d="M250.522 239.362H233.361V256.383H250.522V239.362Z" fill="#263238"/>
<path d="M260.89 259.308H243.729V276.329H260.89V259.308Z" fill="#263238"/>
<path d="M270.609 239.362H253.448V256.383H270.609V239.362Z" fill="#263238"/>
<path d="M230.434 239.362H213.273V256.383H230.434V239.362Z" fill="#263238"/>
<path d="M220.728 259.308H203.567V276.329H220.728V259.308Z" fill="#263238"/>
<path d="M240.816 259.308H223.655V276.329H240.816V259.308Z" fill="#263238"/>
<path d="M310.771 239.362H293.61V256.383H310.771V239.362Z" fill="#263238"/>
<path d="M321.139 259.308H303.978V276.329H321.139V259.308Z" fill="#263238"/>
<path d="M330.859 239.362H313.698V256.383H330.859V239.362Z" fill="#263238"/>
<path d="M280.978 259.308H263.816V276.329H280.978V259.308Z" fill="#263238"/>
<path d="M301.065 259.308H283.904V276.329H301.065V259.308Z" fill="#263238"/>
<path d="M210.36 239.362H193.199V256.383H210.36V239.362Z" fill="#263238"/>
<path d="M483.707 40.6062H116.04C114.237 40.6076 112.458 41.0235 110.842 41.8216C109.225 42.6197 107.814 43.7787 106.717 45.209C105.62 46.6393 104.867 48.3026 104.516 50.0703C104.165 51.838 104.225 53.6627 104.692 55.4034L131.572 155.437C132.242 157.934 133.717 160.14 135.769 161.715C137.82 163.289 140.334 164.143 142.92 164.146H180.447V171.068H421.034V164.185H456.786C459.373 164.183 461.887 163.329 463.938 161.754C465.99 160.18 467.465 157.973 468.135 155.476L495.015 55.4431C495.488 53.7031 495.555 51.8775 495.209 50.1077C494.864 48.3378 494.115 46.6712 493.022 45.2368C491.929 43.8024 490.52 42.6387 488.905 41.8357C487.289 41.0328 485.511 40.6121 483.707 40.6062Z" fill="#263238" stroke="#263238" stroke-linecap="round" stroke-linejoin="round"/>
<path d="M442.128 155.317H157.619L129.162 52.968H470.571L442.128 155.317Z" fill="white" stroke="#263238" stroke-linecap="round" stroke-linejoin="round"/>
<path d="M176.501 110.396V111.72H171.483V110.396H176.501Z" fill="#263238"/>
<path d="M182.751 110.396V111.72H177.719V110.396H182.751Z" fill="#263238"/>
<path d="M189.001 110.396V111.72H184.009V110.396H189.001Z" fill="#263238"/>
<path d="M195.238 110.396V111.72H190.219V110.396H195.238Z" fill="#263238"/>
<path d="M201.488 110.396V111.72H196.456V110.396H201.488Z" fill="#263238"/>
<path d="M207.738 110.396V111.72H202.706V110.396H207.738Z" fill="#263238"/>
<path d="M213.975 110.396V111.72H208.956V110.396H213.975Z" fill="#263238"/>
<path d="M220.159 117.372L214.624 102.627H215.948L221.483 117.372H220.159Z" fill="#263238"/>
<path d="M171.443 88.9287V90.2523H166.424V88.9287H171.443Z" fill="#263238"/>
<path d="M177.693 88.9287V90.2523H172.674V88.9287H177.693Z" fill="#263238"/>
<path d="M184.009 88.9287V90.2523H178.977V88.9287H184.009Z" fill="#263238"/>
<path d="M190.193 88.9287V90.2523H185.161V88.9287H190.193Z" fill="#263238"/>
<path d="M196.43 88.9287V90.2523H191.411V88.9287H196.43Z" fill="#263238"/>
<path d="M206.997 88.9287V90.2523H201.965V88.9287H206.997Z" fill="#263238"/>
<path d="M213.233 88.9287V90.2523H208.215V88.9287H213.233Z" fill="#263238"/>
<path d="M219.483 88.9287V90.2523H214.465V88.9287H219.483Z" fill="#263238"/>
<path d="M225.733 88.9287V90.2523H220.702V88.9287H225.733Z" fill="#263238"/>
<path d="M231.97 88.9287V90.2523H226.952V88.9287H231.97Z" fill="#263238"/>
<path d="M238.22 88.9287V90.2523H233.202V88.9287H238.22Z" fill="#263238"/>
<path d="M244.47 88.9287V90.2523H239.439V88.9287H244.47Z" fill="#263238"/>
<path d="M255.024 88.9287V90.2523H250.005V88.9287H255.024Z" fill="#263238"/>
<path d="M261.274 88.9287V90.2523H256.242V88.9287H261.274Z" fill="#263238"/>
<path d="M267.524 88.9287V90.2523H262.492V88.9287H267.524Z" fill="#263238"/>
<path d="M278.025 88.9287V90.2523H273.006V88.9287H278.025Z" fill="#263238"/>
<path d="M284.328 88.9287V90.2523H279.349V88.9287H284.328Z" fill="#263238"/>
<path d="M290.578 88.9287V90.2523H285.546V88.9287H290.578Z" fill="#263238"/>
<path d="M314.068 88.9287V90.2523H309.05V88.9287H314.068Z" fill="#263238"/>
<path d="M320.318 88.9287V90.2523H315.287V88.9287H320.318Z" fill="#263238"/>
<path d="M326.568 88.9287V90.2523H321.537V88.9287H326.568Z" fill="#263238"/>
<path d="M332.805 88.9287V90.2523H327.787V88.9287H332.805Z" fill="#263238"/>
<path d="M339.055 88.9287V90.2523H334.023V88.9287H339.055Z" fill="#263238"/>
<path d="M349.609 88.9287V90.2523H344.59V88.9287H349.609Z" fill="#263238"/>
<path d="M355.859 88.9287V90.2523H350.854V88.9287H355.859Z" fill="#263238"/>
<path d="M362.109 88.9287V90.2523H357.077V88.9287H362.109Z" fill="#263238"/>
<path d="M372.662 88.9287V90.2523H367.644V88.9287H372.662Z" fill="#263238"/>
<path d="M383.229 88.9287V90.2523H378.197V88.9287H383.229Z" fill="#263238"/>
<path d="M466.969 306.453L452.801 361.088L466.201 365.019L466.969 306.453Z" fill="white" stroke="#263238" stroke-linecap="round" stroke-linejoin="round"/>
<path d="M473.325 248.707C471.726 246.251 471.143 243.272 471.697 240.395C472.425 235.008 478.926 233.777 478.926 233.777C478.926 233.777 480.343 232.705 485.547 234.677C490.751 236.649 530.993 242.102 556.708 245.583C582.423 249.064 590.752 246.814 590.394 255.642C590.037 264.47 567.473 343.697 567.129 346.185C566.785 348.674 473.325 248.707 473.325 248.707Z" fill="white" stroke="#263238" stroke-miterlimit="10"/>
<path d="M581.489 263.366L473.314 248.709L455.834 377.594L564.009 392.252L581.489 263.366Z" fill="white" stroke="#263238" stroke-linecap="round" stroke-linejoin="round"/>
<path d="M561.382 289.088L567.672 289.935" stroke="#263238" stroke-width="0.5" stroke-linecap="round" stroke-linejoin="round"/>
<path d="M521.988 283.741L556.403 288.413" stroke="#263238" stroke-width="0.5" stroke-linecap="round" stroke-linejoin="round"/>
<path d="M480.277 278.089L517.009 283.066" stroke="#263238" stroke-width="0.5" stroke-linecap="round" stroke-linejoin="round"/>
<path d="M551.53 299.411L566.123 301.397" stroke="#263238" stroke-width="0.5" stroke-linecap="round" stroke-linejoin="round"/>
<path d="M478.728 289.551L536.607 297.4" stroke="#263238" stroke-width="0.5" stroke-linecap="round" stroke-linejoin="round"/>
<path d="M508.098 305.195L564.573 312.845" stroke="#263238" stroke-width="0.5" stroke-linecap="round" stroke-linejoin="round"/>
<path d="M477.179 301.013L502.285 304.414" stroke="#263238" stroke-width="0.5" stroke-linecap="round" stroke-linejoin="round"/>
<path d="M526.861 319.41L563.011 324.307" stroke="#263238" stroke-width="0.5" stroke-linecap="round" stroke-linejoin="round"/>
<path d="M496.18 315.254L522.717 318.841" stroke="#263238" stroke-width="0.5" stroke-linecap="round" stroke-linejoin="round"/>
<path d="M475.616 312.461L491.612 314.632" stroke="#263238" stroke-width="0.5" stroke-linecap="round" stroke-linejoin="round"/>
<path d="M548.524 334.009L561.462 335.756" stroke="#263238" stroke-width="0.5" stroke-linecap="round" stroke-linejoin="round"/>
<path d="M474.067 323.923L539.825 332.831" stroke="#263238" stroke-width="0.5" stroke-linecap="round" stroke-linejoin="round"/>
<path d="M523.339 342.268L559.912 347.218" stroke="#263238" stroke-width="0.5" stroke-linecap="round" stroke-linejoin="round"/>
<path d="M472.518 335.372L517.115 341.421" stroke="#263238" stroke-width="0.5" stroke-linecap="round" stroke-linejoin="round"/>
<path d="M534.647 355.463L558.35 358.68" stroke="#263238" stroke-width="0.5" stroke-linecap="round" stroke-linejoin="round"/>
<path d="M486.54 348.938L528.834 354.669" stroke="#263238" stroke-width="0.5" stroke-linecap="round" stroke-linejoin="round"/>
<path d="M470.955 346.834L481.562 348.276" stroke="#263238" stroke-width="0.5" stroke-linecap="round" stroke-linejoin="round"/>
<path d="M581.496 263.371C581.496 263.371 583.35 245.398 589.971 252.624" stroke="#263238" stroke-linecap="round" stroke-linejoin="round"/>
<path d="M544.817 401.84L544.711 413.249L538.037 403.852L511.302 313.97L518.082 311.958L544.817 401.84Z" fill="white" stroke="#263238" stroke-linecap="round" stroke-linejoin="round"/>
<path d="M515.165 312.845L511.466 313.924L537.734 403.946L541.434 402.867L515.165 312.845Z" fill="#263238" stroke="#263238" stroke-width="0.5" stroke-linecap="round" stroke-linejoin="round"/>
<path d="M544.817 401.854L538.05 403.865L544.711 413.249L544.817 401.854Z" stroke="#263238" stroke-linecap="round" stroke-linejoin="round"/>
<path d="M541.374 408.564L544.711 413.249L544.764 407.558L541.374 408.564Z" fill="#263238" stroke="#263238" stroke-linecap="round" stroke-linejoin="round"/>
<path d="M511.699 302.892C510.802 303.162 510.048 303.775 509.602 304.598C509.155 305.421 509.053 306.388 509.316 307.286L511.302 313.97L518.082 311.958L516.096 305.275C515.826 304.378 515.212 303.624 514.389 303.178C513.565 302.732 512.598 302.629 511.699 302.892Z" fill="white" stroke="#263238" stroke-linecap="round" stroke-linejoin="round"/>
<path d="M511.699 302.892C510.802 303.162 510.048 303.775 509.602 304.598C509.155 305.421 509.053 306.388 509.316 307.286L510.269 310.476L517.036 308.464L516.096 305.275C515.826 304.378 515.212 303.624 514.389 303.178C513.565 302.732 512.598 302.629 511.699 302.892Z" fill="#263238" stroke="#263238" stroke-linecap="round" stroke-linejoin="round"/>
<path d="M178.249 249.805C177.402 250.996 176.567 252.24 175.733 253.551" stroke="white" stroke-linecap="round" stroke-linejoin="round"/>
<path d="M192.1 233.87C188.41 237.288 184.997 240.992 181.89 244.948" stroke="white" stroke-linecap="round" stroke-linejoin="round"/>
<path d="M177.07 240.898C173.453 245.97 170.175 251.275 167.258 256.78" stroke="white" stroke-linecap="round" stroke-linejoin="round"/>
<path d="M270.464 270.002C269.629 271.194 268.782 272.438 267.948 273.735" stroke="white" stroke-linecap="round" stroke-linejoin="round"/>
<path d="M284.314 254.067C280.632 257.488 277.222 261.192 274.118 265.145" stroke="white" stroke-linecap="round" stroke-linejoin="round"/>
<path d="M269.298 261.069C265.683 266.169 262.405 271.502 259.486 277.03" stroke="white" stroke-linecap="round" stroke-linejoin="round"/>
<path d="M402.641 237.245C401.436 236.424 400.165 235.604 398.854 234.783" stroke="white" stroke-linecap="round" stroke-linejoin="round"/>
<path d="M418.796 250.851C415.314 247.225 411.555 243.876 407.554 240.832" stroke="white" stroke-linecap="round" stroke-linejoin="round"/>
<path d="M411.54 235.921C406.387 232.384 401.008 229.188 395.438 226.352" stroke="white" stroke-linecap="round" stroke-linejoin="round"/>
<path d="M266.438 319.304C265.75 324.281 264.717 331.216 263.684 335.333" stroke="#263238" stroke-linecap="round" stroke-linejoin="round"/>
<path d="M267.206 313.256C267.206 313.256 267.1 314.196 266.902 315.718" stroke="#263238" stroke-linecap="round" stroke-linejoin="round"/>
<path d="M270.742 327.378C269.296 332.199 267.526 336.917 265.445 341.5" stroke="#263238" stroke-linecap="round" stroke-linejoin="round"/>
<path d="M336.95 334.432C336.95 334.432 337.837 345.907 344.008 352.088" stroke="#263238" stroke-linecap="round" stroke-linejoin="round"/>
<path d="M336.063 345.907C336.063 345.907 338.711 353.849 344.008 357.383" stroke="#263238" stroke-linecap="round" stroke-linejoin="round"/>
<g style="mix-blend-mode:multiply">
<path d="M156.202 407.24C156.202 407.24 162.081 402.515 162.081 361.896C162.081 321.276 168.847 291.603 177.19 278.592C185.532 265.582 193.331 260.367 196.986 260.367C200.641 260.367 198.019 265.052 192.815 271.816C187.611 278.579 182.923 282.232 180.831 290.57C178.739 298.909 178.752 309.312 181.361 308.266C183.969 307.22 188.127 286.401 191.769 278.592C195.41 270.783 204.282 260.883 209.486 256.198C214.69 251.513 226.157 237.457 231.361 241.096C236.565 244.736 233.453 249.951 230.328 252.029C227.203 254.107 214.69 266.588 208.97 274.423C203.249 282.258 199.595 302.019 202.72 302.535C205.845 303.051 215.22 273.907 220.424 267.66C225.628 261.413 246.47 244.22 251.157 243.704C255.845 243.187 256.375 250.467 252.203 254.12C248.032 257.773 233.97 273.377 229.282 282.748C224.595 292.119 222.502 309.312 226.634 305.142C230.765 300.973 237.571 283.794 243.305 278.063C249.039 272.332 266.226 254.12 270.397 256.198C274.569 258.276 273.522 263.491 269.881 267.13C266.24 270.77 252.164 290.57 248.522 300.973C244.881 311.376 240.696 340.547 242.789 336.391C244.881 332.235 251.647 310.873 255.289 301.979C258.93 293.085 266.226 288.969 267.272 293.125C268.318 297.281 266.226 299.372 263.618 308.756C261.009 318.14 260.969 343.168 253.21 357.171C245.45 371.174 214.306 401.139 210.148 411.542C207.136 418.707 203.54 425.613 199.396 432.189" fill="#263238"/>
</g>
<g style="mix-blend-mode:multiply">
<path d="M445.597 410.761C445.597 410.761 439.572 402.515 439.572 361.896C439.572 321.276 432.793 291.603 424.464 278.592C416.135 265.582 408.309 260.367 404.667 260.367C401.026 260.367 403.621 265.052 408.839 271.816C414.056 278.579 418.73 282.232 420.756 290.57C422.782 298.909 422.848 309.312 420.24 308.266C417.631 307.22 413.473 286.401 409.818 278.592C406.164 270.783 397.318 260.883 392.114 256.198C386.91 251.513 375.443 237.457 370.226 241.096C365.009 244.736 368.147 249.951 371.272 252.029C374.397 254.107 386.897 266.588 392.631 274.423C398.364 282.258 402.006 302.019 398.881 302.535C395.756 303.051 386.421 273.907 381.217 267.686C376.013 261.466 355.157 244.246 350.47 243.73C345.782 243.214 345.266 250.493 349.437 254.146C353.608 257.799 367.67 273.404 372.358 282.775C377.045 292.145 379.124 309.338 375.006 305.169C370.888 301 364.069 283.82 358.348 278.089C352.628 272.358 335.427 254.146 331.256 256.224C327.085 258.302 328.131 263.517 331.772 267.157C335.414 270.797 349.49 290.597 353.131 301C356.773 311.403 360.944 340.574 358.865 336.418C356.786 332.262 350.006 310.9 346.365 302.006C342.723 293.111 335.427 288.995 334.381 293.151C333.335 297.307 335.427 299.398 338.022 308.782C340.618 318.166 340.671 343.194 348.444 357.197C356.216 371.2 386.473 398.531 390.645 408.948C394.816 419.364 402.363 435.776 402.363 435.776" fill="#263238"/>
</g>
<path d="M154.215 417.246C154.215 417.246 162.028 391.742 162.028 351.069C162.028 310.397 168.794 280.776 177.137 267.766C185.479 254.755 193.278 249.54 196.933 249.54C200.588 249.54 197.966 254.226 192.762 260.989C187.558 267.752 182.87 271.405 180.778 279.73C178.686 288.055 178.699 298.485 181.308 297.439C183.916 296.394 188.074 275.574 191.716 267.766C195.357 259.957 204.229 250.057 209.433 245.371C214.637 240.686 226.104 226.63 231.308 230.27C236.512 233.909 233.4 239.124 230.275 241.202C227.15 243.28 214.637 255.761 208.917 263.596C203.196 271.432 199.542 291.192 202.667 291.708C205.792 292.225 215.167 263.08 220.371 256.82C225.575 250.56 246.417 233.393 251.104 232.877C255.792 232.361 256.322 239.64 252.151 243.293C247.979 246.946 233.917 262.551 229.229 271.921C224.542 281.292 222.45 298.485 226.581 294.316C230.712 290.147 237.519 272.967 243.252 267.236C248.986 261.505 266.173 243.293 270.344 245.371C274.516 247.449 273.47 252.664 269.828 256.304C266.187 259.943 252.111 279.73 248.469 290.147C244.828 300.563 240.644 329.721 242.736 325.551C244.828 321.382 251.594 300.047 255.236 291.139C258.877 282.232 266.173 278.116 267.219 282.285C268.266 286.454 266.173 288.532 263.565 297.903C260.956 307.273 260.916 332.315 253.157 346.331C245.397 360.347 215.127 398.399 210.956 408.815C206.785 419.232 197.41 442.142 197.41 442.142" fill="white"/>
<path d="M154.215 417.246C154.215 417.246 162.028 391.742 162.028 351.069C162.028 310.397 168.794 280.776 177.137 267.766C185.479 254.755 193.278 249.54 196.933 249.54C200.588 249.54 197.966 254.226 192.762 260.989C187.558 267.752 182.87 271.405 180.778 279.73C178.686 288.055 178.699 298.485 181.308 297.439C183.916 296.394 188.074 275.574 191.716 267.766C195.357 259.957 204.229 250.057 209.433 245.371C214.637 240.686 226.104 226.63 231.308 230.27C236.512 233.909 233.4 239.124 230.275 241.202C227.15 243.28 214.637 255.761 208.917 263.596C203.196 271.432 199.542 291.192 202.667 291.708C205.792 292.225 215.167 263.08 220.371 256.82C225.575 250.56 246.417 233.393 251.104 232.877C255.792 232.361 256.322 239.64 252.151 243.293C247.979 246.946 233.917 262.551 229.229 271.921C224.542 281.292 222.45 298.485 226.581 294.316C230.712 290.147 237.519 272.967 243.252 267.236C248.986 261.505 266.173 243.293 270.344 245.371C274.516 247.449 273.47 252.664 269.828 256.304C266.187 259.943 252.111 279.73 248.469 290.147C244.828 300.563 240.644 329.721 242.736 325.551C244.828 321.382 251.594 300.047 255.236 291.139C258.877 282.232 266.173 278.116 267.219 282.285C268.266 286.454 266.173 288.532 263.565 297.903C260.956 307.273 260.916 332.315 253.157 346.331C245.397 360.347 215.127 398.399 210.956 408.815C206.785 419.232 197.41 442.142 197.41 442.142" stroke="#263238" stroke-linecap="round" stroke-linejoin="round"/>
<path d="M447.372 417.246C447.372 417.246 439.559 391.742 439.559 351.069C439.559 310.397 432.779 280.776 424.45 267.766C416.121 254.755 408.296 249.54 404.654 249.54C401.013 249.54 403.608 254.226 408.825 260.989C414.043 267.752 418.717 271.405 420.743 279.73C422.769 288.055 422.835 298.485 420.226 297.439C417.618 296.394 413.46 275.574 409.805 267.766C406.151 259.957 397.305 250.057 392.101 245.371C386.897 240.686 375.43 226.63 370.213 230.27C364.996 233.909 368.134 239.124 371.259 241.202C374.384 243.28 386.884 255.761 392.618 263.596C398.351 271.432 401.993 291.192 398.868 291.708C395.743 292.225 386.368 263.08 381.164 256.82C375.96 250.56 355.104 233.393 350.417 232.877C345.729 232.361 345.213 239.64 349.384 243.293C353.555 246.946 367.617 262.551 372.305 271.921C376.993 281.292 379.071 298.485 374.953 294.316C370.835 290.147 364.016 272.967 358.295 267.236C352.575 261.505 335.374 243.293 331.203 245.371C327.032 247.449 328.078 252.664 331.719 256.304C335.361 259.943 349.437 279.73 353.078 290.147C356.72 300.563 360.891 329.721 358.812 325.551C356.733 321.382 349.953 300.047 346.312 291.139C342.67 282.232 335.374 278.116 334.328 282.285C333.282 286.454 335.374 288.532 337.969 297.903C340.565 307.273 340.618 332.315 348.391 346.331C356.163 360.347 386.421 398.399 390.592 408.815C394.763 419.232 404.138 442.142 404.138 442.142" fill="white"/>
<path d="M447.372 417.246C447.372 417.246 439.559 391.742 439.559 351.069C439.559 310.397 432.779 280.776 424.45 267.766C416.121 254.755 408.296 249.54 404.654 249.54C401.013 249.54 403.608 254.226 408.825 260.989C414.043 267.752 418.717 271.405 420.743 279.73C422.769 288.055 422.835 298.485 420.226 297.439C417.618 296.394 413.46 275.574 409.805 267.766C406.151 259.957 397.305 250.057 392.101 245.371C386.897 240.686 375.43 226.63 370.213 230.27C364.996 233.909 368.134 239.124 371.259 241.202C374.384 243.28 386.884 255.761 392.618 263.596C398.351 271.432 401.993 291.192 398.868 291.708C395.743 292.225 386.368 263.08 381.164 256.82C375.96 250.56 355.104 233.393 350.417 232.877C345.729 232.361 345.213 239.64 349.384 243.293C353.555 246.946 367.617 262.551 372.305 271.921C376.993 281.292 379.071 298.485 374.953 294.316C370.835 290.147 364.016 272.967 358.295 267.236C352.575 261.505 335.374 243.293 331.203 245.371C327.032 247.449 328.078 252.664 331.719 256.304C335.361 259.943 349.437 279.73 353.078 290.147C356.72 300.563 360.891 329.721 358.812 325.551C356.733 321.382 349.953 300.047 346.312 291.139C342.67 282.232 335.374 278.116 334.328 282.285C333.282 286.454 335.374 288.532 337.969 297.903C340.565 307.273 340.618 332.315 348.391 346.331C356.163 360.347 386.421 398.399 390.592 408.815C394.763 419.232 404.138 442.142 404.138 442.142" stroke="#263238" stroke-linecap="round" stroke-linejoin="round"/>
<path d="M121.244 496.659H200.694C201.726 492.688 203.024 488.241 204.666 483.423C210.916 464.709 231.149 441.308 231.149 441.308C216.648 428.543 199.608 418.989 181.149 413.276C150.693 403.905 128.394 406.658 128.394 406.658C132.499 423.575 132.951 441.172 129.718 458.276C125.746 477.547 123.098 489.737 121.244 496.659Z" fill="#263238" stroke="#263238" stroke-linecap="round" stroke-linejoin="round"/>
<path d="M400.377 496.659H482.925C480.277 489.803 474.557 474.913 468.836 460.023C461.024 439.747 464.149 412.455 461.024 412.455C457.899 412.455 422.795 410.113 405.634 415.565C388.473 421.018 368.955 436.623 368.955 436.623C377.79 446.885 385.386 458.15 391.585 470.188C395.569 478.626 398.521 487.514 400.377 496.659Z" fill="#263238" stroke="#263238" stroke-linecap="round" stroke-linejoin="round"/>
<path d="M170.873 422.805C170.304 420.555 161.829 423.944 161.829 423.944C161.829 423.944 164.663 413.223 160.148 413.223C155.632 413.223 155.063 421.164 155.063 421.164C155.063 421.164 146.588 417.789 146.588 422.858C146.588 427.927 152.229 427.835 152.229 427.835C152.229 427.835 145.45 436.305 150.534 437.986C155.619 439.667 158.996 433.473 158.996 433.473C158.996 433.473 162.386 439.125 166.941 436.861C171.496 434.598 168.066 429.529 168.066 429.529C168.066 429.529 171.43 425.069 170.873 422.805ZM159.578 431.276C159.152 431.181 158.761 430.968 158.451 430.661C158.141 430.354 157.924 429.965 157.825 429.54C157.726 429.115 157.749 428.671 157.891 428.258C158.034 427.846 158.29 427.482 158.631 427.209C158.971 426.936 159.382 426.764 159.816 426.714C160.25 426.664 160.689 426.738 161.082 426.926C161.476 427.115 161.809 427.411 162.042 427.78C162.275 428.149 162.398 428.576 162.399 429.013C162.303 429.677 161.959 430.28 161.435 430.701C160.912 431.121 160.248 431.326 159.578 431.276ZM183.294 486.071C182.725 483.821 174.25 487.209 174.25 487.209C174.25 487.209 177.084 476.488 172.555 476.488C168.026 476.488 167.484 484.429 167.484 484.429C167.484 484.429 159.009 481.041 159.009 486.11C159.009 491.179 164.663 491.193 164.663 491.193C164.663 491.193 157.883 499.663 162.968 501.357C168.053 503.052 171.43 496.831 171.43 496.831C171.43 496.831 174.819 502.483 179.375 500.219C183.93 497.956 180.5 492.887 180.5 492.887C180.5 492.887 183.85 488.268 183.294 486.071ZM171.999 494.541C171.573 494.446 171.182 494.233 170.872 493.926C170.561 493.619 170.344 493.231 170.245 492.806C170.146 492.381 170.169 491.936 170.312 491.524C170.455 491.111 170.711 490.747 171.051 490.474C171.392 490.201 171.803 490.029 172.236 489.979C172.67 489.929 173.109 490.003 173.503 490.191C173.897 490.38 174.229 490.676 174.462 491.045C174.695 491.414 174.819 491.842 174.819 492.278C174.724 492.937 174.377 493.534 173.851 493.944C173.326 494.353 172.662 494.543 171.999 494.475V494.541ZM133.598 494.541C133.029 492.278 124.567 495.666 124.567 495.666C124.567 495.666 127.388 484.946 122.873 484.946C118.357 484.946 117.788 492.887 117.788 492.887C117.788 492.887 109.313 489.499 109.313 494.581C109.313 499.663 114.967 499.663 114.967 499.663C114.967 499.663 108.188 508.121 113.272 509.815C118.357 511.509 121.734 505.302 121.734 505.302C121.734 505.302 125.124 510.94 129.679 508.69C134.234 506.44 130.818 501.357 130.818 501.357C130.818 501.357 134.168 496.725 133.612 494.475L133.598 494.541ZM122.303 502.999C121.876 502.904 121.485 502.69 121.175 502.382C120.864 502.075 120.647 501.686 120.549 501.26C120.45 500.834 120.474 500.389 120.618 499.976C120.762 499.564 121.019 499.2 121.361 498.927C121.703 498.655 122.114 498.484 122.549 498.436C122.983 498.387 123.423 498.463 123.816 498.653C124.21 498.844 124.541 499.141 124.773 499.512C125.004 499.883 125.126 500.312 125.124 500.749C125.025 501.403 124.679 501.994 124.156 502.401C123.634 502.807 122.975 502.998 122.316 502.933L122.303 502.999ZM195.132 450.52H201.342C205.858 450.52 208.678 455.603 208.678 455.603C199.091 458.356 195.145 450.454 195.145 450.454L195.132 450.52ZM188.922 494.541H195.132C199.647 494.541 202.468 499.624 202.468 499.624C192.881 502.377 188.935 494.475 188.935 494.475L188.922 494.541ZM134.737 486.071H140.947C145.463 486.071 148.283 491.153 148.283 491.153C138.683 493.906 134.737 486.071 134.737 486.071ZM164.756 446.245L168.384 451.288C171.032 454.967 168.53 460.209 168.53 460.209C160.638 454.001 164.756 446.179 164.756 446.179V446.245ZM133.691 463.107L136.525 457.588C138.604 453.617 144.403 453.379 144.403 453.379C142.457 463.2 133.691 463.107 133.691 463.107Z" fill="white"/>
<path d="M436.778 433.526C436.209 431.276 427.734 434.664 427.734 434.664C427.734 434.664 430.568 423.943 426.053 423.943C421.537 423.943 420.968 431.885 420.968 431.885C420.968 431.885 412.493 428.51 412.493 433.579C412.493 438.648 418.147 438.661 418.147 438.661C418.147 438.661 411.368 447.132 416.453 448.826C421.537 450.52 424.914 444.299 424.914 444.299C424.914 444.299 428.304 449.951 432.859 447.688C437.414 445.424 433.984 440.355 433.984 440.355C433.984 440.355 437.335 435.776 436.778 433.526ZM425.483 441.996C425.057 441.902 424.666 441.688 424.356 441.381C424.046 441.074 423.829 440.686 423.73 440.261C423.631 439.836 423.654 439.391 423.796 438.979C423.939 438.566 424.195 438.203 424.536 437.929C424.876 437.656 425.287 437.485 425.721 437.435C426.155 437.385 426.594 437.458 426.987 437.647C427.381 437.835 427.714 438.131 427.947 438.5C428.18 438.869 428.303 439.297 428.304 439.733C428.224 440.404 427.884 441.018 427.356 441.441C426.829 441.864 426.156 442.064 425.483 441.996ZM463.301 477.547C462.745 475.284 454.271 478.672 454.271 478.672C454.271 478.672 457.091 467.951 452.576 467.951C448.06 467.951 447.504 475.892 447.504 475.892C447.504 475.892 439.029 472.504 439.029 477.586C439.029 482.669 444.67 482.669 444.67 482.669C444.67 482.669 437.904 491.126 442.989 492.82C448.073 494.515 451.45 488.307 451.45 488.307C451.45 488.307 454.84 493.945 459.395 491.695C463.95 489.445 460.521 484.363 460.521 484.363C460.521 484.363 463.871 479.797 463.301 477.547ZM452.019 486.07C451.593 485.975 451.202 485.762 450.891 485.454C450.581 485.146 450.364 484.757 450.265 484.331C450.166 483.906 450.19 483.461 450.334 483.048C450.478 482.635 450.735 482.272 451.077 481.999C451.419 481.727 451.831 481.556 452.265 481.508C452.7 481.459 453.139 481.534 453.533 481.725C453.926 481.915 454.258 482.213 454.489 482.584C454.72 482.955 454.842 483.383 454.84 483.82C454.757 484.489 454.415 485.099 453.888 485.52C453.361 485.94 452.69 486.138 452.019 486.07ZM435.083 494.541C434.514 492.278 426.053 495.666 426.053 495.666C426.053 495.666 428.873 484.945 424.358 484.945C419.842 484.945 419.273 492.887 419.273 492.887C419.273 492.887 410.798 489.498 410.798 494.581C410.798 499.663 416.453 499.663 416.453 499.663C416.453 499.663 409.673 508.121 414.758 509.815C419.842 511.509 423.219 505.301 423.219 505.301C423.219 505.301 426.609 510.94 431.164 508.69C435.719 506.44 432.303 501.357 432.303 501.357C432.303 501.357 435.6 496.725 435.083 494.475V494.541ZM423.788 502.998C423.362 502.904 422.97 502.69 422.66 502.382C422.349 502.075 422.132 501.685 422.034 501.26C421.935 500.834 421.959 500.389 422.103 499.976C422.247 499.563 422.504 499.2 422.846 498.927C423.188 498.655 423.6 498.484 424.034 498.436C424.469 498.387 424.908 498.462 425.302 498.653C425.695 498.843 426.027 499.141 426.258 499.512C426.489 499.883 426.611 500.311 426.609 500.748C426.51 501.405 426.162 501.999 425.637 502.406C425.111 502.812 424.449 503.001 423.788 502.932V502.998ZM461.05 461.241H467.261C471.776 461.241 474.596 466.323 474.596 466.323C464.996 469.076 461.05 461.175 461.05 461.175V461.241ZM394.432 493.35H400.642C405.157 493.35 407.978 498.419 407.978 498.419C398.378 501.251 394.432 493.35 394.432 493.35ZM430.661 456.952L434.289 461.995C436.937 465.675 434.435 470.916 434.435 470.916C426.543 464.722 430.661 456.952 430.661 456.952ZM467.38 488.506L470.995 493.548C473.643 497.215 471.14 502.469 471.14 502.469C463.248 496.315 467.38 488.506 467.38 488.506ZM399.543 473.828L402.377 468.308C404.456 464.338 410.322 464.1 410.322 464.1C408.362 473.92 399.53 473.828 399.53 473.828H399.543Z" fill="white"/>
</g>
<defs>
<clipPath id="clip0">
<rect width="591" height="510" fill="white" transform="translate(0.0830078)"/>
</clipPath>
</defs>
</svg>
